<?xml version="1.0" encoding="utf-8"?>
<!-- Generator: Adobe Illustrator 27.6.1, SVG Export Plug-In . SVG Version: 6.00 Build 0)  -->
<svg version="1.1" id="Layer_2_00000041976661057004728920000000264128155459370932_"
	 xmlns="http://www.w3.org/2000/svg" xmlns:xlink="http://www.w3.org/1999/xlink" x="0px" y="0px" viewBox="0 0 1209.4 370.4"
	 style="enable-background:new 0 0 1209.4 370.4;" xml:space="preserve">
<style type="text/css">
	.st0{fill:#00A1BC;}
	.st1{enable-background:new    ;}
	.st2{fill:#03538E;}
</style>
<g>
	<path class="st0" d="M543.7,324.2L543.7,324.2c-4.1,0-8.2-0.2-12.1-0.5l0,0l0.2-2h0c3.9,0.3,7.9,0.5,11.9,0.5h0.1L543.7,324.2z
		 M547.7,324.2l0-2l0,0c4-0.1,8-0.4,11.9-0.8h0l0.2,2l0,0C555.8,323.8,551.7,324.1,547.7,324.2L547.7,324.2z M527.6,323.3
		L527.6,323.3c-4-0.5-8.1-1.1-12-1.9l-0.1,0l0.4-2l0,0c3.9,0.8,7.8,1.4,11.8,1.9l0,0L527.6,323.3z M563.7,322.8l-0.3-2l0.1,0
		c3.9-0.6,7.9-1.3,11.7-2.2l0,0l0.5,1.9l0,0C571.8,321.5,567.8,322.2,563.7,322.8L563.7,322.8z M511.7,320.5L511.7,320.5
		c-4-0.9-7.9-2.1-11.7-3.3l-0.1,0l0.6-1.9l0.1,0c3.8,1.2,7.6,2.4,11.5,3.2l0.1,0L511.7,320.5z M579.5,319.6l-0.5-1.9l0,0
		c3.8-1,7.6-2.2,11.4-3.6l0,0l0.7,1.8v0.4l-0.1-0.4C587.3,317.3,583.4,318.5,579.5,319.6L579.5,319.6z M496.3,315.9L496.3,315.9
		c-3.8-1.4-7.6-3-11.2-4.7l0,0l0.9-1.8l0,0c3.6,1.7,7.3,3.2,11,4.6l0,0L496.3,315.9z M594.9,314.5l-0.7-1.9l0,0
		c3.7-1.5,7.3-3.1,10.9-4.9v-0.2l1,1.9l0,0C602.3,311.3,598.6,313,594.9,314.5L594.9,314.5z M481.4,309.5L481.4,309.5
		c-3.6-1.8-7.2-3.8-10.6-5.9l0,0l1-1.7l0,0c3.4,2.1,6.9,4,10.4,5.8l0,0L481.4,309.5z M609.5,307.7l-1-1.8l0,0
		c3.5-1.9,6.9-3.9,10.2-6.1l0,0l1.1,1.7l0,0C616.5,303.7,613,305.8,609.5,307.7L609.5,307.7z M467.5,301.4L467.5,301.4
		c-3.4-2.2-6.7-4.6-9.9-7.1l0,0l1.2-1.6l0,0c3.1,2.5,6.4,4.8,9.7,7l0,0L467.5,301.4z M623.2,299.2l-1.1-1.6l0,0
		c3.2-2.3,6.4-4.7,9.4-7.2l0,0h0.1l0,0l1.3,1.5l0,0C629.7,294.4,626.5,296.9,623.2,299.2L623.2,299.2z M454.5,291.8v-0.1
		c-3.1-2.6-6.1-5.3-8.9-8.2l0,0l1.4-1.4l0,0c2.8,2.8,5.8,5.5,8.8,8.1l0,0L454.5,291.8z M635.8,289.2l-1.3-1.5l0,0
		c3-2.6,5.8-5.4,8.6-8.3l0,0l1.5,1.4l0,0C641.8,283.7,638.9,286.5,635.8,289.2L635.8,289.2z M442.8,280.7L442.8,280.7
		c-2.8-3-5.5-6-7.9-9.2l0,0l1.6-1.2l0,0c2.4,3.1,5.1,6.1,7.8,9h0.1L442.8,280.7z M647.3,277.8l-1.5-1.3l0,0c2.7-3,5.2-6.1,7.5-9.2
		l0,0l1.6,1.2l0,0l0,0C652.5,271.6,650,274.8,647.3,277.8L647.3,277.8z M432.4,268.3L432.4,268.3c-2.4-3.2-4.7-6.6-6.8-10l0,0
		l1.7-1.1l0,0.1c2.1,3.4,4.3,6.7,6.7,9.9l0,0L432.4,268.3z M657.3,265.2l-1.6-1.1l0,0c2.3-3.2,4.4-6.6,6.4-10v-0.1l0.1,0l1.7,1l0,0
		C661.8,258.4,659.6,261.8,657.3,265.2L657.3,265.2z M423.6,254.9L423.6,254.9c-2-3.5-3.9-7.1-5.6-10.8l0,0l1.8-0.8l0,0
		c1.7,3.6,3.5,7.1,5.5,10.5h0.1L423.6,254.9z M665.8,251.5l-1.8-1l0,0c1.9-3.5,3.6-7.1,5.2-10.7l0,0l1.8,0.8l0,0
		C669.5,244.2,667.7,247.9,665.8,251.5L665.8,251.5z M416.3,240.5L416.3,240.5c-1.6-3.8-3.1-7.5-4.3-11.3l0-0.1l1.9-0.6l0,0.1
		c1.2,3.8,2.7,7.5,4.2,11.1l0,0L416.3,240.5z M672.6,236.8l-1.9-0.7l0,0c1.5-3.7,2.8-7.5,3.9-11.3l0-0.1l1.9,0.6l0,0
		C675.5,229.2,674.1,233,672.6,236.8L672.6,236.8z M410.8,225.3L410.8,225.3c-1.2-3.9-2.2-7.8-3-11.8l0-0.1l2-0.4l0,0
		c0.8,3.9,1.8,7.8,2.9,11.6v0.1l0,0L410.8,225.3z M677.7,221.5l-1.9-0.5l0,0c1-3.8,1.9-7.8,2.6-11.6l0,0l2,0.3l0,0
		C679.6,213.6,678.8,217.6,677.7,221.5L677.7,221.5z M407.1,209.6L407.1,209.6c-0.7-4-1.2-8-1.6-12v0l2-0.2l0,0
		c0.3,4,0.9,7.9,1.5,11.8l0,0L407.1,209.6z M681,205.7l-2-0.3l0,0c0.6-3.9,1-7.9,1.2-11.9v0l2,0.1v0
		C682,197.6,681.5,201.7,681,205.7L681,205.7z M405.2,193.6L405.2,193.6c-0.2-2.7-0.2-5.4-0.2-8c0-1.4,0-2.7,0.1-4.1v-0.1l2,0.1v0.1
		c0,1.4-0.1,2.7-0.1,4c0,2.6,0.1,5.3,0.2,7.9l0,0l-0.1,0L405.2,193.6z M682.4,189.6l-2-0.1v0c0-1.4,0.1-2.7,0.1-4
		c0-2.6-0.1-5.3-0.2-7.9v0l2-0.1v0.1c0.2,2.7,0.2,5.4,0.2,8C682.4,186.9,682.4,188.3,682.4,189.6L682.4,189.6z M407.2,177.6l-2-0.1
		l0-0.1c0.2-4,0.6-8.1,1.2-12v0l2,0.3v0C407.9,169.6,407.5,173.6,407.2,177.6L407.2,177.6z M679.9,173.7L679.9,173.7
		c-0.3-4-0.9-8-1.5-11.9l0,0l2-0.4l0,0c0.7,4,1.2,8,1.6,12l0,0.1L679.9,173.7z M409.1,161.8l-2-0.4l0,0c0.7-4,1.6-7.9,2.6-11.8l0,0
		l1.9,0.5l0,0C410.6,153.9,409.8,157.8,409.1,161.8L409.1,161.8z M677.6,157.9L677.6,157.9c-0.8-3.9-1.8-7.8-2.9-11.6l0,0l1.9-0.6
		l0,0.1c1.2,3.8,2.2,7.8,3,11.7l0,0L677.6,157.9z M412.7,146.3l-1.9-0.6l0,0c1.2-3.9,2.5-7.7,4-11.4l0,0l1.9,0.7l0,0.1
		C415.2,138.7,413.9,142.5,412.7,146.3L412.7,146.3z M673.5,142.6L673.5,142.6c-1.3-3.8-2.7-7.5-4.3-11.2l0,0l1.8-0.8l0,0
		c1.6,3.7,3,7.5,4.3,11.3l0,0L673.5,142.6z M418.2,131.4l-1.8-0.8l0,0c1.6-3.7,3.4-7.4,5.3-10.9l0-0.1l1.8,1l0,0
		C421.5,124.1,419.8,127.7,418.2,131.4L418.2,131.4z M667.7,127.8L667.7,127.8c-1.7-3.6-3.5-7.2-5.5-10.6H662l1.9-1l0,0
		c2,3.5,3.9,7.1,5.6,10.7l0,0L667.7,127.8z M425.3,117.1L425.3,117.1l-1.8-1l0,0c2-3.5,4.2-6.9,6.5-10.2l0,0l1.6,1.1l0,0
		C429.5,110.3,427.3,113.7,425.3,117.1L425.3,117.1z M660.1,113.8L660.1,113.8c-2.1-3.4-4.3-6.7-6.7-9.9l0,0v-0.1l0,0l1.6-1.2l0,0
		c2.4,3.2,4.7,6.6,6.8,10l0,0L660.1,113.8z M434.1,103.9l-1.6-1.2l0,0c2.4-3.2,5-6.4,7.6-9.4l0,0l1.5,1.3l0,0
		C439,97.5,436.5,100.6,434.1,103.9L434.1,103.9z M651,100.8L651,100.8c-2.5-3.2-5.1-6.2-7.8-9.1l0,0l0,0l1.4-1.3l0,0
		c2.8,2.9,5.4,6,7.9,9.2l0,0L651,100.8z M444.3,91.7l-1.5-1.4l0,0c2.8-2.9,5.7-5.8,8.7-8.4l0,0l1.3,1.5l0,0
		C450,86,447.1,88.8,444.3,91.7L444.3,91.7z M640.5,88.9L640.5,88.9c-2.8-2.8-5.8-5.5-8.8-8.1h-0.1l1.3-1.6l0,0
		c3.1,2.6,6.1,5.3,8.9,8.2l0,0L640.5,88.9z M455.9,80.8l-1.3-1.5l0,0c3.1-2.6,6.3-5.1,9.6-7.4l0,0l1.1,1.6l0,0
		C462.1,75.8,459,78.2,455.9,80.8L455.9,80.8z M628.6,78.4L628.6,78.4c-3.2-2.5-6.4-4.9-9.7-7l0,0l1.1-1.7l0,0
		c3.4,2.2,6.7,4.6,9.8,7.1l0,0L628.6,78.4z M468.7,71.3L468.7,71.3l-1.1-1.7l0,0c3.4-2.2,6.9-4.3,10.4-6.2l0,0l1,1.8l0,0
		C475.4,67,472,69.1,468.7,71.3L468.7,71.3z M615.6,69.2L615.6,69.2c-3.4-2.1-6.9-4.1-10.4-5.9H605l0.9-1.8l0,0
		c3.6,1.8,7.2,3.8,10.6,5.9l0,0L615.6,69.2z M482.4,63.3l-0.9-1.8l0,0c3.6-1.8,7.3-3.5,11-5l0,0l0.7,1.9l0,0
		C489.6,59.9,486,61.5,482.4,63.3L482.4,63.3z M601.6,61.6L601.6,61.6c-3.7-1.7-7.4-3.2-11.1-4.6l-0.1,0l0.7-1.9l0,0
		c3.8,1.4,7.5,2.9,11.2,4.6l0,0L601.6,61.6z M497,57l-0.7-1.9h0v-0.2l0.1,0.2c3.8-1.4,7.6-2.6,11.5-3.6l0,0l0.5,1.9l-0.1,0
		C504.6,54.5,500.8,55.7,497,57L497,57z M586.8,55.8L586.8,55.8c-3.8-1.3-7.7-2.4-11.5-3.3l0,0l0.5-2.3v0.4c3.9,0.9,7.8,2,11.6,3.3
		l0,0L586.8,55.8z M512.2,52.5l-0.4-1.9l0,0c3.9-0.9,7.9-1.7,11.9-2.3h0.1l0.3,2H524C520.1,50.8,516.1,51.6,512.2,52.5L512.2,52.5z
		 M571.4,51.6L571.4,51.6c-3.9-0.8-7.9-1.4-11.8-1.9h0l0.2-2l0,0c4,0.5,8,1.1,12,1.9l0,0L571.4,51.6z M527.9,49.8l-0.2-2l0,0
		c4-0.5,8.1-0.7,12.1-0.9l0,0l0.1,2h-0.1C535.8,49,531.8,49.3,527.9,49.8L527.9,49.8z M555.7,49.4L555.7,49.4c-4-0.4-8-0.5-12-0.5
		l0,0l0-2c4,0,8.1,0.2,12.1,0.5h0L555.7,49.4z"/>
</g>
<g>
	<path class="st0" d="M689.5,125.5l-0.6-0.1v-1l-0.6-0.6l8.5-8.5v0.1l1.4,1.4L689.5,125.5z M685.1,125.5l-12.1-0.1l0.1-1.9l12,0
		V125.5z M669.1,125.5l-2-0.1l0-1.9l1.9,0V125.5z M701,114l-1.4-1.4l8.5-8.6l1.4,1.4L701,114z M712.4,102.7l-1.4-1.4l8.6-8.6
		l1.4,1.4L712.4,102.7z M723.7,91.4l-1.4-1.4l8.6-8.6l1.4,1.4L723.7,91.4z M735,80l-1.4-1.4l8.5-8.6l1.4,1.4L735,80z M746.3,68.7
		l-1.4-1.4l8.6-8.6l1.4,1.4L746.3,68.7z M757.6,57.4l-1.4-1.4l8.6-8.6l1.4,1.4L757.6,57.4z M768.9,46.1l-1.4-1.4l8.5-8.6l1.4,1.4
		L768.9,46.1z M780.2,34.8l-1.4-1.4l8.6-8.6l1.4,1.4L780.2,34.8z M791.6,23.5l-1.4-1.4l7.8-7.8l1.9,0l0,2h-1.1L791.6,23.5z
		 M895.9,16.3l-12.1,0l0-2l12,0V16.3z M879.9,16.3l-12.1,0l0-2l12,0V16.3z M863.9,16.3l-12.1,0l0-2l12,0V16.3z M847.9,16.3l-12.1,0
		l0-2l12,0V16.3z M831.9,16.3l-12.1,0l0-2l12,0V16.3z M815.9,16.3l-12.1,0l0-2l12,0V16.3z"/>
</g>
<g>
	<polygon class="st0" points="894.2,27.5 894.2,3.2 906.3,15.3 	"/>
</g>
<g>
	<path class="st0" d="M895.9,356.8l-12.1-0.1l0-1.9l12,0V356.8z M879.9,356.8l-12.1-0.1l0-1.9l12,0V356.8z M863.9,356.8l-12.1-0.1
		l0-1.9l12,0V356.8z M847.9,356.8l-12.1-0.1l0-1.9l12,0V356.8z M831.9,356.8l-12.1-0.1l0-1.9l12,0V356.8z M815.9,356.8l-12.1-0.1
		l0-1.9l12,0V356.8z M799.9,356.8l-2,0l-7.7-7.8l1.4-1.4l7.2,7.2l1.1,0V356.8z M787.4,346.3l-8.6-8.5l1.4-1.4l8.6,8.6L787.4,346.3z
		 M776.1,335l-8.5-8.6l1.4-1.4l8.6,8.6L776.1,335z M764.8,323.6l-8.6-8.5l1.4-1.4l8.5,8.6L764.8,323.6z M753.5,312.3l-8.6-8.5
		l1.4-1.4l8.6,8.6L753.5,312.3z M742.1,301l-8.5-8.6l1.4-1.4l8.6,8.5L742.1,301z M730.8,289.7l-8.6-8.5l1.4-1.4l8.5,8.6L730.8,289.7
		z M719.5,278.4l-8.6-8.6l1.4-1.4l8.6,8.5L719.5,278.4z M708.2,267.1l-8.5-8.5l1.4-1.4l8.5,8.5L708.2,267.1z M696.9,255.8l-8.5-8.5
		l0.6-0.6l0.1-1.1l0.5,0l8.7,8.7h0.1L696.9,255.8z M685.1,247.6l-12.1,0l0.1-2l12,0V247.6z M669.1,247.6l-2,0l0-2l1.9,0V247.6z"/>
</g>
<g>
	<polygon class="st0" points="894.2,367.9 894.2,343.6 906.3,355.8 	"/>
</g>
<g>
	<path class="st0" d="M289.5,292.2l-1.9,0l0-2h1.1l7.2-7.2l1.4,1.4l0,0L289.5,292.2z M283.7,292.2l-12.1,0l0-2l12.1,0V292.2z
		 M267.7,292.2l-12.1,0l0-2l12.1,0V292.2z M251.7,292.2l-12.1,0l0-2l12.1,0V292.2z M235.7,292.2l-12.1,0l0-2l12.1,0V292.2z
		 M219.7,292.2l-12.1,0l0-2l12.1,0V292.2z M203.7,292.2l-12.1,0l0-2l12.1,0V292.2z M300.1,281.7l-1.4-1.4l0,0l8.5-8.5l1.4,1.4l0,0
		L300.1,281.7z M311.4,270.4L310,269l0,0l8.5-8.5l1.4,1.4l0,0L311.4,270.4z M322.7,259.1l-1.4-1.4l0,0l8.5-8.5l1.4,1.4l0,0
		L322.7,259.1z M334,247.7h-0.1H334l-1.4-1.4l0.8-0.7l11.9,0l-0.1,2h-11L334,247.7h0.1H334z M421,247.6l-7.9,0l0-2l7.8,0V247.6z
		 M409.2,247.6l-12.1,0l0-2l12.1,0V247.6z M393.2,247.6l-12.1,0l0-2l12.1,0V247.6z M377.2,247.6l-12.1,0l0-2l12.1,0V247.6z
		 M361.2,247.6l-12.1,0l0-2l12.1,0V247.6z"/>
</g>
<g>
	<polygon class="st0" points="193.3,279.1 193.3,303.4 181.1,291.2 	"/>
</g>
<g>
	<path class="st0" d="M421,125.5l-7.9-0.1l0-1.9l7.8,0V125.5z M409.2,125.5l-12.1-0.1l0-1.9l12.1,0V125.5z M393.2,125.5l-12.1-0.1
		l0-1.9l12.1,0V125.5z M377.2,125.5l-12.1-0.1l0-1.9l12.1,0V125.5z M361.2,125.5l-12.1-0.1l0-1.9l12.1,0V125.5z M345.2,125.5
		l-11.9,0l-0.7-0.7l1.4-1.4l0.1,0.2l11.1,0V125.5z M329.8,122L329.8,122l-8.6-8.6l1.4-1.4l0,0l8.5,8.5L329.8,122z M318.5,110.7
		L318.5,110.7l-8.5-8.6l1.4-1.4l0,0l8.5,8.5L318.5,110.7z M307.2,99.3L307.2,99.3l-8.6-8.5l1.4-1.4l0,0l8.5,8.5L307.2,99.3z
		 M295.9,88L295.9,88l-7.2-7.2l-1.1,0l0-2l1.9,0l7.8,7.8L295.9,88z M283.7,80.9l-12.1,0l0-2l12.1,0V80.9z M267.7,80.9l-12.1,0l0-2
		l12.1,0V80.9z M251.7,80.9l-12.1,0l0-2l12.1,0V80.9z M235.7,80.9l-12.1,0l0-2l12.1,0V80.9z M219.7,80.9l-12.1,0l0-2l12.1,0V80.9z
		 M203.7,80.9l-12.1,0l0-2l12.1,0V80.9z"/>
</g>
<g>
	<polygon class="st0" points="193.3,67.7 193.3,92 181.1,79.9 	"/>
</g>
<g>
	<path class="st0" d="M895.9,186.5l-12.1,0l0-2l12,0V186.5z M879.9,186.5l-12.1,0l0-2l12,0V186.5z M863.9,186.5l-12.1,0l0-2l12,0
		V186.5z M847.9,186.5l-12.1,0l0-2l12,0V186.5z M831.9,186.5l-12.1,0l0-2l12,0V186.5z M815.9,186.5l-12.1,0l0-2l12,0V186.5z
		 M799.9,186.5l-12.1,0l0-2l12,0V186.5z M783.9,186.5l-12.1,0l0-2l12,0V186.5z M767.9,186.5l-12.1,0l0-2l12,0V186.5z M751.9,186.5
		l-12.1,0l0-2l12,0V186.5z M735.9,186.5l-12.1,0l0-2l12,0V186.5z M719.9,186.5l-12.1,0l0-2l12,0V186.5z M703.9,186.5l-12.1,0l0-2
		l12,0V186.5z M687.9,186.5l-7,0l0-2l6.9,0V186.5z"/>
</g>
<g>
	<polygon class="st0" points="894.2,197.7 894.2,173.4 906.3,185.5 	"/>
</g>
<g class="st1">
	<path class="st0" d="M52.2,55.8c-0.2-0.2-0.4-0.4-0.8-0.7s-0.8-0.4-1.2-0.6s-1-0.4-1.6-0.5c-0.6-0.1-1.1-0.2-1.7-0.2
		c-1.3,0-2.3,0.2-2.9,0.7c-0.6,0.5-0.9,1.1-0.9,2c0,0.6,0.2,1.1,0.5,1.5c0.4,0.4,0.9,0.7,1.6,0.9c0.7,0.2,1.6,0.5,2.7,0.7
		c1.3,0.3,2.5,0.7,3.5,1.1s1.7,1,2.2,1.7c0.5,0.7,0.8,1.7,0.8,2.9c0,1-0.2,1.8-0.6,2.5c-0.4,0.7-0.9,1.3-1.6,1.8
		c-0.7,0.5-1.4,0.8-2.3,1c-0.9,0.2-1.8,0.3-2.8,0.3c-1,0-2-0.1-2.9-0.3c-1-0.2-1.9-0.5-2.8-0.9s-1.7-0.9-2.5-1.5l1.4-2.7
		c0.2,0.2,0.6,0.5,1,0.8c0.5,0.3,1,0.6,1.6,0.8s1.3,0.5,2,0.7c0.7,0.2,1.4,0.3,2.2,0.3c1.2,0,2.2-0.2,2.8-0.6c0.7-0.4,1-1.1,1-1.9
		c0-0.6-0.2-1.2-0.7-1.6c-0.4-0.4-1.1-0.7-1.9-1c-0.8-0.3-1.8-0.6-2.9-0.8c-1.3-0.3-2.4-0.7-3.2-1.1c-0.9-0.4-1.5-1-1.9-1.6
		s-0.6-1.5-0.6-2.5c0-1.3,0.3-2.4,0.9-3.3s1.5-1.6,2.6-2c1.1-0.5,2.3-0.7,3.6-0.7c0.9,0,1.7,0.1,2.5,0.3c0.8,0.2,1.6,0.5,2.2,0.8
		c0.7,0.3,1.3,0.7,1.8,1.1L52.2,55.8z"/>
	<path class="st0" d="M71,68.2v2.7H57.5V51.2h13.2V54H60.6v5.6h8.8v2.5h-8.8v6H71z"/>
</g>
<g class="st1">
	<path class="st0" d="M74.2,70.9V51.2h8.6c0.9,0,1.7,0.2,2.4,0.6c0.7,0.4,1.4,0.9,1.9,1.5c0.5,0.6,1,1.3,1.3,2.1
		c0.3,0.8,0.5,1.5,0.5,2.3c0,0.9-0.2,1.7-0.5,2.5c-0.3,0.8-0.8,1.5-1.3,2c-0.6,0.6-1.3,1-2,1.2l4.6,7.5h-3.5l-4.3-6.8h-4.5v6.8H74.2
		z M77.3,61.3h5.4c0.6,0,1.1-0.2,1.5-0.5c0.4-0.3,0.8-0.8,1.1-1.3c0.3-0.6,0.4-1.2,0.4-1.8c0-0.7-0.2-1.3-0.5-1.9
		c-0.3-0.6-0.7-1-1.2-1.3c-0.5-0.3-1-0.5-1.5-0.5h-5.2V61.3z"/>
</g>
<g class="st1">
	<path class="st0" d="M93.2,51.2l6,15.9l5.9-15.9h3.3l-7.7,19.7h-2.9l-7.8-19.7H93.2z"/>
	<path class="st0" d="M110.8,70.9V51.2h3.1v19.7H110.8z"/>
	<path class="st0" d="M117.1,60.9c0-1.2,0.2-2.4,0.6-3.5c0.4-1.2,1-2.2,1.9-3.2c0.8-1,1.8-1.7,3-2.3c1.2-0.6,2.5-0.8,4-0.8
		c1.8,0,3.3,0.4,4.6,1.2c1.3,0.8,2.2,1.8,2.9,3.1l-2.4,1.6c-0.4-0.8-0.8-1.4-1.4-1.9c-0.6-0.5-1.2-0.8-1.8-1
		c-0.7-0.2-1.3-0.3-1.9-0.3c-1,0-1.9,0.2-2.7,0.6c-0.8,0.4-1.4,1-2,1.6s-0.9,1.5-1.2,2.3c-0.3,0.9-0.4,1.7-0.4,2.5
		c0,1,0.2,1.9,0.5,2.7c0.3,0.9,0.7,1.6,1.3,2.3c0.6,0.7,1.2,1.2,2,1.6c0.8,0.4,1.6,0.6,2.5,0.6c0.6,0,1.3-0.1,2-0.3
		c0.7-0.2,1.3-0.6,1.9-1.1s1-1.1,1.4-1.8l2.6,1.4c-0.4,1-1,1.8-1.9,2.5c-0.9,0.7-1.8,1.2-2.9,1.6c-1.1,0.4-2.1,0.5-3.2,0.5
		c-1.3,0-2.6-0.3-3.7-0.9s-2.1-1.4-3-2.3c-0.8-1-1.5-2.1-2-3.3C117.3,63.4,117.1,62.1,117.1,60.9z"/>
	<path class="st0" d="M137.3,70.9V51.2h3.1v19.7H137.3z"/>
	<path class="st0" d="M153,71c-1.4,0-2.7-0.3-3.8-0.8c-1.1-0.6-2.1-1.3-3-2.3c-0.8-1-1.5-2-1.9-3.2c-0.5-1.2-0.7-2.4-0.7-3.7
		c0-1.3,0.2-2.6,0.7-3.8c0.5-1.2,1.2-2.3,2-3.2c0.9-0.9,1.9-1.7,3-2.2s2.4-0.8,3.8-0.8c1.4,0,2.7,0.3,3.8,0.9c1.1,0.6,2.1,1.3,3,2.3
		c0.8,1,1.5,2,1.9,3.2c0.4,1.2,0.7,2.4,0.7,3.7c0,1.3-0.2,2.5-0.7,3.7c-0.5,1.2-1.1,2.3-2,3.2c-0.9,0.9-1.9,1.7-3,2.2
		C155.6,70.8,154.3,71,153,71z M146.7,61.1c0,0.9,0.1,1.8,0.4,2.7c0.3,0.9,0.7,1.6,1.2,2.3c0.5,0.7,1.2,1.2,2,1.6
		c0.8,0.4,1.6,0.6,2.6,0.6c1,0,1.9-0.2,2.7-0.6c0.8-0.4,1.4-1,2-1.6c0.5-0.7,0.9-1.5,1.2-2.3c0.3-0.8,0.4-1.7,0.4-2.6
		c0-0.9-0.1-1.8-0.4-2.7c-0.3-0.8-0.7-1.6-1.3-2.3c-0.6-0.7-1.2-1.2-2-1.6c-0.8-0.4-1.6-0.6-2.6-0.6c-1,0-1.9,0.2-2.7,0.6
		c-0.8,0.4-1.4,1-2,1.6c-0.5,0.7-0.9,1.5-1.2,2.3C146.9,59.3,146.7,60.2,146.7,61.1z"/>
</g>
<g class="st1">
	<path class="st0" d="M4.6,104.2V84.5h8.3c0.9,0,1.7,0.2,2.4,0.6c0.7,0.4,1.4,0.9,1.9,1.5c0.6,0.6,1,1.3,1.3,2.1
		c0.3,0.8,0.4,1.5,0.4,2.3c0,1.1-0.2,2.1-0.7,3.1s-1.2,1.8-2.1,2.4s-1.9,0.9-3.1,0.9H7.7v6.8H4.6z M7.7,94.6h5.1
		c0.6,0,1.1-0.2,1.5-0.5s0.8-0.8,1.1-1.3c0.3-0.6,0.4-1.2,0.4-1.9c0-0.7-0.1-1.4-0.4-1.9c-0.3-0.5-0.7-1-1.2-1.3s-1-0.5-1.5-0.5h-5
		V94.6z"/>
</g>
<g class="st1">
	<path class="st0" d="M30,104.3c-1.4,0-2.7-0.3-3.8-0.8c-1.1-0.6-2.1-1.3-3-2.3c-0.8-1-1.5-2-1.9-3.2c-0.5-1.2-0.7-2.4-0.7-3.7
		c0-1.3,0.2-2.6,0.7-3.8c0.5-1.2,1.2-2.3,2-3.2c0.9-0.9,1.9-1.7,3-2.2s2.4-0.8,3.8-0.8c1.4,0,2.7,0.3,3.8,0.9c1.1,0.6,2.1,1.3,3,2.3
		c0.8,1,1.5,2,1.9,3.2c0.4,1.2,0.7,2.4,0.7,3.7c0,1.3-0.2,2.5-0.7,3.7c-0.5,1.2-1.1,2.3-2,3.2c-0.9,0.9-1.9,1.7-3,2.2
		C32.6,104,31.4,104.3,30,104.3z M23.8,94.3c0,0.9,0.1,1.8,0.4,2.7c0.3,0.9,0.7,1.6,1.2,2.3c0.5,0.7,1.2,1.2,2,1.6
		c0.8,0.4,1.6,0.6,2.6,0.6c1,0,1.9-0.2,2.7-0.6c0.8-0.4,1.4-1,2-1.6c0.5-0.7,0.9-1.5,1.2-2.3c0.3-0.8,0.4-1.7,0.4-2.6
		c0-0.9-0.1-1.8-0.4-2.7c-0.3-0.8-0.7-1.6-1.3-2.3c-0.6-0.7-1.2-1.2-2-1.6c-0.8-0.4-1.6-0.6-2.6-0.6c-1,0-1.9,0.2-2.7,0.6
		c-0.8,0.4-1.4,1-2,1.6c-0.5,0.7-0.9,1.5-1.2,2.3C23.9,92.6,23.8,93.4,23.8,94.3z"/>
</g>
<g class="st1">
	<path class="st0" d="M54.4,89.1c-0.2-0.2-0.4-0.4-0.8-0.7s-0.8-0.4-1.2-0.6s-1-0.4-1.6-0.5c-0.6-0.1-1.1-0.2-1.7-0.2
		c-1.3,0-2.3,0.2-2.9,0.7c-0.6,0.5-0.9,1.1-0.9,2c0,0.6,0.2,1.1,0.5,1.5c0.4,0.4,0.9,0.7,1.6,0.9c0.7,0.2,1.6,0.5,2.7,0.7
		c1.3,0.3,2.5,0.7,3.5,1.1s1.7,1,2.2,1.7c0.5,0.7,0.8,1.7,0.8,2.9c0,1-0.2,1.8-0.6,2.5c-0.4,0.7-0.9,1.3-1.6,1.8
		c-0.7,0.5-1.4,0.8-2.3,1c-0.9,0.2-1.8,0.3-2.8,0.3c-1,0-2-0.1-2.9-0.3c-1-0.2-1.9-0.5-2.8-0.9s-1.7-0.9-2.5-1.5l1.4-2.7
		c0.2,0.2,0.6,0.5,1,0.8c0.5,0.3,1,0.6,1.6,0.8s1.3,0.5,2,0.7c0.7,0.2,1.4,0.3,2.2,0.3c1.2,0,2.2-0.2,2.8-0.6c0.7-0.4,1-1.1,1-1.9
		c0-0.6-0.2-1.2-0.7-1.6c-0.4-0.4-1.1-0.7-1.9-1c-0.8-0.3-1.8-0.6-2.9-0.8c-1.3-0.3-2.4-0.7-3.2-1.1c-0.9-0.4-1.5-1-1.9-1.6
		S42,91.3,42,90.3c0-1.3,0.3-2.4,0.9-3.3s1.5-1.6,2.6-2c1.1-0.5,2.3-0.7,3.6-0.7c0.9,0,1.7,0.1,2.5,0.3c0.8,0.2,1.6,0.5,2.2,0.8
		c0.7,0.3,1.3,0.7,1.8,1.1L54.4,89.1z"/>
	<path class="st0" d="M74.1,87.2h-6.5v16.9h-3.1V87.2h-6.6v-2.7h16.2V87.2z"/>
	<path class="st0" d="M78,84.5l6,15.9l5.9-15.9h3.3l-7.7,19.7h-2.9l-7.8-19.7H78z"/>
	<path class="st0" d="M109,101.4v2.7H95.5V84.5h13.2v2.7H98.7v5.6h8.8v2.5h-8.8v6H109z"/>
	<path class="st0" d="M115.4,90.3v13.9h-3.1V84.5h2.6l11.1,14.2V84.5h3.1v19.7h-2.7L115.4,90.3z"/>
</g>
<g class="st1">
	<path class="st0" d="M147.9,87.2h-6.5v16.9h-3.1V87.2h-6.6v-2.7h16.2V87.2z"/>
</g>
<g class="st1">
	<path class="st0" d="M154.5,84.5h2.9l7.7,19.7h-3.3l-1.9-5.3H152l-1.9,5.3h-3.3L154.5,84.5z M159,96.5l-3.1-8.6l-3.1,8.6H159z"/>
</g>
<g class="st1">
	<path class="st0" d="M930.7,4h2.9l7.7,19.7H938l-1.9-5.3h-7.9l-1.9,5.3H923L930.7,4z M935.2,16l-3.1-8.6L929,16H935.2z"/>
</g>
<g class="st1">
	<path class="st0" d="M955,8.6c-0.2-0.2-0.4-0.4-0.8-0.7s-0.8-0.4-1.2-0.6c-0.5-0.2-1-0.4-1.6-0.5c-0.6-0.1-1.1-0.2-1.7-0.2
		c-1.3,0-2.3,0.2-2.9,0.7c-0.6,0.5-0.9,1.1-0.9,2c0,0.6,0.2,1.1,0.5,1.5c0.4,0.4,0.9,0.7,1.6,0.9c0.7,0.2,1.6,0.5,2.7,0.7
		c1.3,0.3,2.5,0.7,3.5,1.1c1,0.4,1.7,1,2.2,1.7c0.5,0.7,0.8,1.7,0.8,2.9c0,1-0.2,1.8-0.6,2.5c-0.4,0.7-0.9,1.3-1.6,1.8
		c-0.7,0.5-1.4,0.8-2.3,1c-0.9,0.2-1.8,0.3-2.8,0.3c-1,0-2-0.1-2.9-0.3c-1-0.2-1.9-0.5-2.8-0.9s-1.7-0.9-2.5-1.5l1.4-2.7
		c0.2,0.2,0.6,0.5,1,0.8c0.5,0.3,1,0.6,1.6,0.8s1.3,0.5,2,0.7c0.7,0.2,1.4,0.3,2.2,0.3c1.2,0,2.2-0.2,2.8-0.6c0.7-0.4,1-1.1,1-1.9
		c0-0.6-0.2-1.2-0.7-1.6c-0.4-0.4-1.1-0.7-1.9-1c-0.8-0.3-1.8-0.6-2.9-0.8c-1.3-0.3-2.4-0.7-3.2-1.1c-0.9-0.4-1.5-1-1.9-1.6
		c-0.4-0.6-0.6-1.5-0.6-2.5c0-1.3,0.3-2.4,0.9-3.3s1.5-1.6,2.6-2c1.1-0.5,2.3-0.7,3.6-0.7c0.9,0,1.7,0.1,2.5,0.3
		c0.8,0.2,1.6,0.5,2.2,0.8c0.7,0.3,1.3,0.7,1.8,1.1L955,8.6z"/>
	<path class="st0" d="M960.3,23.7V4h3.1v19.7H960.3z"/>
	<path class="st0" d="M979.5,8.6c-0.2-0.2-0.4-0.4-0.8-0.7s-0.8-0.4-1.2-0.6c-0.5-0.2-1-0.4-1.6-0.5s-1.1-0.2-1.7-0.2
		c-1.3,0-2.3,0.2-2.9,0.7c-0.6,0.5-0.9,1.1-0.9,2c0,0.6,0.2,1.1,0.5,1.5c0.4,0.4,0.9,0.7,1.6,0.9c0.7,0.2,1.6,0.5,2.7,0.7
		c1.3,0.3,2.5,0.7,3.5,1.1c1,0.4,1.7,1,2.2,1.7c0.5,0.7,0.8,1.7,0.8,2.9c0,1-0.2,1.8-0.6,2.5c-0.4,0.7-0.9,1.3-1.6,1.8
		s-1.4,0.8-2.3,1c-0.9,0.2-1.8,0.3-2.8,0.3c-1,0-2-0.1-2.9-0.3c-1-0.2-1.9-0.5-2.8-0.9s-1.7-0.9-2.5-1.5l1.4-2.7
		c0.2,0.2,0.6,0.5,1,0.8c0.5,0.3,1,0.6,1.6,0.8s1.3,0.5,2,0.7c0.7,0.2,1.4,0.3,2.2,0.3c1.2,0,2.2-0.2,2.8-0.6s1-1.1,1-1.9
		c0-0.6-0.2-1.2-0.7-1.6c-0.4-0.4-1.1-0.7-1.9-1c-0.8-0.3-1.8-0.6-2.9-0.8c-1.3-0.3-2.4-0.7-3.2-1.1c-0.9-0.4-1.5-1-1.9-1.6
		c-0.4-0.6-0.6-1.5-0.6-2.5c0-1.3,0.3-2.4,0.9-3.3s1.5-1.6,2.6-2c1.1-0.5,2.3-0.7,3.6-0.7c0.9,0,1.7,0.1,2.5,0.3
		c0.8,0.2,1.6,0.5,2.2,0.8c0.7,0.3,1.3,0.7,1.8,1.1L979.5,8.6z"/>
	<path class="st0" d="M999.2,6.8h-6.5v16.9h-3.1V6.8H983V4h16.2V6.8z"/>
	<path class="st0" d="M1015.4,21v2.7h-13.5V4h13.2v2.7H1005v5.6h8.8v2.5h-8.8v6H1015.4z"/>
	<path class="st0" d="M1021.7,9.8v13.9h-3.1V4h2.6l11.1,14.2V4h3.1v19.7h-2.7L1021.7,9.8z"/>
	<path class="st0" d="M1038.6,13.7c0-1.2,0.2-2.4,0.6-3.5s1-2.2,1.9-3.2s1.8-1.7,3-2.3c1.2-0.6,2.5-0.8,4-0.8c1.8,0,3.3,0.4,4.6,1.2
		c1.3,0.8,2.2,1.8,2.9,3.1l-2.4,1.6c-0.4-0.8-0.8-1.4-1.4-1.9s-1.2-0.8-1.8-1c-0.7-0.2-1.3-0.3-1.9-0.3c-1,0-1.9,0.2-2.7,0.6
		c-0.8,0.4-1.4,1-2,1.6c-0.5,0.7-0.9,1.5-1.2,2.3c-0.3,0.9-0.4,1.7-0.4,2.5c0,1,0.2,1.9,0.5,2.7c0.3,0.9,0.7,1.6,1.3,2.3
		s1.2,1.2,2,1.6c0.8,0.4,1.6,0.6,2.5,0.6c0.6,0,1.3-0.1,2-0.3c0.7-0.2,1.3-0.6,1.9-1.1s1-1.1,1.4-1.8l2.6,1.4c-0.4,1-1,1.8-1.9,2.5
		s-1.8,1.2-2.9,1.6c-1.1,0.4-2.1,0.5-3.2,0.5c-1.3,0-2.6-0.3-3.7-0.9c-1.1-0.6-2.1-1.4-3-2.3c-0.8-1-1.5-2.1-2-3.3
		C1038.8,16.2,1038.6,14.9,1038.6,13.7z"/>
	<path class="st0" d="M1058.8,23.7V4h3.1v19.7H1058.8z"/>
</g>
<g class="st1">
	<path class="st0" d="M1072.9,4h2.9l7.7,19.7h-3.3l-1.9-5.3h-7.9l-1.9,5.3h-3.3L1072.9,4z M1077.5,16l-3.1-8.6l-3.1,8.6H1077.5z"/>
</g>
<g class="st1">
</g>
<g class="st1">
	<path class="st0" d="M1105.3,6.8h-6.5v16.9h-3.1V6.8h-6.6V4h16.2V6.8z"/>
</g>
<g class="st1">
	<path class="st0" d="M1121.5,21v2.7H1108V4h13.2v2.7h-10.1v5.6h8.8v2.5h-8.8v6H1121.5z"/>
</g>
<g class="st1">
	<path class="st0" d="M1123.1,13.7c0-1.2,0.2-2.4,0.6-3.5c0.4-1.2,1-2.2,1.9-3.2c0.8-1,1.8-1.7,3-2.3c1.2-0.6,2.5-0.8,4-0.8
		c1.8,0,3.3,0.4,4.6,1.2s2.2,1.8,2.9,3.1l-2.4,1.6c-0.4-0.8-0.8-1.4-1.4-1.9c-0.6-0.5-1.2-0.8-1.8-1c-0.7-0.2-1.3-0.3-1.9-0.3
		c-1,0-1.9,0.2-2.7,0.6s-1.4,1-2,1.6c-0.5,0.7-0.9,1.5-1.2,2.3c-0.3,0.9-0.4,1.7-0.4,2.5c0,1,0.2,1.9,0.5,2.7
		c0.3,0.9,0.7,1.6,1.3,2.3c0.6,0.7,1.2,1.2,2,1.6s1.6,0.6,2.5,0.6c0.6,0,1.3-0.1,2-0.3s1.3-0.6,1.9-1.1s1-1.1,1.4-1.8l2.6,1.4
		c-0.4,1-1,1.8-1.9,2.5c-0.9,0.7-1.8,1.2-2.9,1.6c-1.1,0.4-2.1,0.5-3.2,0.5c-1.3,0-2.6-0.3-3.7-0.9c-1.1-0.6-2.1-1.4-3-2.3
		c-0.8-1-1.5-2.1-2-3.3C1123.3,16.2,1123.1,14.9,1123.1,13.7z"/>
	<path class="st0" d="M1146.4,9.8v13.9h-3.1V4h2.6l11.1,14.2V4h3.1v19.7h-2.7L1146.4,9.8z"/>
	<path class="st0" d="M1164.5,23.7V4h3.1v19.7H1164.5z"/>
</g>
<g class="st1">
	<path class="st0" d="M1171.2,13.7c0-1.2,0.2-2.4,0.6-3.5s1-2.2,1.9-3.2s1.8-1.7,3-2.3c1.2-0.6,2.5-0.8,4-0.8c1.8,0,3.3,0.4,4.6,1.2
		c1.3,0.8,2.2,1.8,2.9,3.1l-2.4,1.6c-0.4-0.8-0.8-1.4-1.4-1.9s-1.2-0.8-1.8-1c-0.7-0.2-1.3-0.3-1.9-0.3c-1,0-1.9,0.2-2.7,0.6
		c-0.8,0.4-1.4,1-2,1.6c-0.5,0.7-0.9,1.5-1.2,2.3c-0.3,0.9-0.4,1.7-0.4,2.5c0,1,0.2,1.9,0.5,2.7c0.3,0.9,0.7,1.6,1.3,2.3
		s1.2,1.2,2,1.6c0.8,0.4,1.6,0.6,2.5,0.6c0.6,0,1.3-0.1,2-0.3c0.7-0.2,1.3-0.6,1.9-1.1s1-1.1,1.4-1.8l2.6,1.4c-0.4,1-1,1.8-1.9,2.5
		s-1.8,1.2-2.9,1.6c-1.1,0.4-2.1,0.5-3.2,0.5c-1.3,0-2.6-0.3-3.7-0.9c-1.1-0.6-2.1-1.4-3-2.3c-0.8-1-1.5-2.1-2-3.3
		C1171.4,16.2,1171.2,14.9,1171.2,13.7z"/>
</g>
<g class="st1">
	<path class="st0" d="M1196.8,4h2.9l7.7,19.7h-3.3l-1.9-5.3h-7.9l-1.9,5.3h-3.3L1196.8,4z M1201.4,16l-3.1-8.6l-3.1,8.6H1201.4z"/>
</g>
<g class="st1">
	<path class="st0" d="M936.6,162.6c-0.2-0.2-0.4-0.4-0.8-0.7s-0.8-0.4-1.2-0.6c-0.5-0.2-1-0.4-1.6-0.5c-0.6-0.1-1.1-0.2-1.7-0.2
		c-1.3,0-2.3,0.2-2.9,0.7c-0.6,0.5-0.9,1.1-0.9,2c0,0.6,0.2,1.1,0.5,1.5c0.4,0.4,0.9,0.7,1.6,0.9c0.7,0.2,1.6,0.5,2.7,0.7
		c1.3,0.3,2.5,0.7,3.5,1.1c1,0.4,1.7,1,2.2,1.7c0.5,0.7,0.8,1.7,0.8,2.9c0,1-0.2,1.8-0.6,2.5c-0.4,0.7-0.9,1.3-1.6,1.8
		c-0.7,0.5-1.4,0.8-2.3,1c-0.9,0.2-1.8,0.3-2.8,0.3c-1,0-2-0.1-2.9-0.3c-1-0.2-1.9-0.5-2.8-0.9s-1.7-0.9-2.5-1.5l1.4-2.7
		c0.2,0.2,0.6,0.5,1,0.8c0.5,0.3,1,0.6,1.6,0.8s1.3,0.5,2,0.7c0.7,0.2,1.4,0.3,2.2,0.3c1.2,0,2.2-0.2,2.8-0.6c0.7-0.4,1-1.1,1-1.9
		c0-0.6-0.2-1.2-0.7-1.6c-0.4-0.4-1.1-0.7-1.9-1c-0.8-0.3-1.8-0.6-2.9-0.8c-1.3-0.3-2.4-0.7-3.2-1.1c-0.9-0.4-1.5-1-1.9-1.6
		c-0.4-0.6-0.6-1.5-0.6-2.5c0-1.3,0.3-2.4,0.9-3.3s1.5-1.6,2.6-2c1.1-0.5,2.3-0.7,3.6-0.7c0.9,0,1.7,0.1,2.5,0.3
		c0.8,0.2,1.6,0.5,2.2,0.8c0.7,0.3,1.3,0.7,1.8,1.1L936.6,162.6z"/>
	<path class="st0" d="M950.1,177.8c-1.4,0-2.7-0.3-3.8-0.8c-1.1-0.6-2.1-1.3-3-2.3c-0.8-1-1.5-2-1.9-3.2c-0.5-1.2-0.7-2.4-0.7-3.7
		c0-1.3,0.2-2.6,0.7-3.8s1.2-2.3,2-3.2c0.9-0.9,1.9-1.7,3-2.2s2.4-0.8,3.8-0.8c1.4,0,2.7,0.3,3.8,0.9c1.1,0.6,2.1,1.3,3,2.3
		c0.8,1,1.5,2,1.9,3.2s0.7,2.4,0.7,3.7c0,1.3-0.2,2.5-0.7,3.7c-0.5,1.2-1.1,2.3-2,3.2c-0.9,0.9-1.9,1.7-3,2.2
		C952.7,177.5,951.5,177.8,950.1,177.8z M943.9,167.8c0,0.9,0.1,1.8,0.4,2.7c0.3,0.9,0.7,1.6,1.2,2.3c0.5,0.7,1.2,1.2,2,1.6
		s1.6,0.6,2.6,0.6c1,0,1.9-0.2,2.7-0.6c0.8-0.4,1.4-1,2-1.6c0.5-0.7,0.9-1.5,1.2-2.3c0.3-0.8,0.4-1.7,0.4-2.6c0-0.9-0.1-1.8-0.4-2.7
		c-0.3-0.8-0.7-1.6-1.3-2.3c-0.6-0.7-1.2-1.2-2-1.6s-1.6-0.6-2.6-0.6c-1,0-1.9,0.2-2.7,0.6c-0.8,0.4-1.4,1-2,1.6s-0.9,1.5-1.2,2.3
		C944,166.1,943.9,166.9,943.9,167.8z"/>
</g>
<g class="st1">
	<path class="st0" d="M962.9,177.7V158h3.1v16.9h10.5v2.7H962.9z"/>
</g>
<g class="st1">
	<path class="st0" d="M986.8,177.8c-1.6,0-2.9-0.3-4-0.8s-1.9-1.3-2.6-2.2c-0.7-0.9-1.1-2-1.4-3.2c-0.3-1.2-0.5-2.4-0.5-3.7v-10h3.1
		v10c0,0.9,0.1,1.8,0.3,2.6s0.5,1.6,0.9,2.3s1,1.2,1.6,1.6c0.7,0.4,1.5,0.6,2.5,0.6c1.1,0,1.9-0.2,2.6-0.6s1.2-0.9,1.6-1.6
		c0.4-0.7,0.7-1.4,0.9-2.3c0.2-0.8,0.3-1.7,0.3-2.6v-10h3.1v10c0,1.3-0.2,2.6-0.5,3.8c-0.3,1.2-0.8,2.2-1.5,3.1s-1.6,1.6-2.6,2.1
		C989.6,177.6,988.3,177.8,986.8,177.8z"/>
	<path class="st0" d="M998.2,167.7c0-1.2,0.2-2.4,0.6-3.5c0.4-1.2,1-2.2,1.9-3.2c0.8-1,1.8-1.7,3-2.3c1.2-0.6,2.5-0.8,4-0.8
		c1.8,0,3.3,0.4,4.6,1.2s2.2,1.8,2.9,3.1l-2.4,1.6c-0.4-0.8-0.8-1.4-1.4-1.9c-0.6-0.5-1.2-0.8-1.8-1c-0.7-0.2-1.3-0.3-1.9-0.3
		c-1,0-1.9,0.2-2.7,0.6s-1.4,1-2,1.6c-0.5,0.7-0.9,1.5-1.2,2.3c-0.3,0.9-0.4,1.7-0.4,2.5c0,1,0.2,1.9,0.5,2.7
		c0.3,0.9,0.7,1.6,1.3,2.3c0.6,0.7,1.2,1.2,2,1.6s1.6,0.6,2.5,0.6c0.6,0,1.3-0.1,2-0.3s1.3-0.6,1.9-1.1s1-1.1,1.4-1.8l2.6,1.4
		c-0.4,1-1,1.8-1.9,2.5c-0.9,0.7-1.8,1.2-2.9,1.6c-1.1,0.4-2.1,0.5-3.2,0.5c-1.3,0-2.6-0.3-3.7-0.9c-1.1-0.6-2.1-1.4-3-2.3
		c-0.8-1-1.5-2.1-2-3.3C998.4,170.1,998.2,168.9,998.2,167.7z"/>
	<path class="st0" d="M1018.4,177.7V158h3.1v19.7H1018.4z"/>
	<path class="st0" d="M1034.1,177.8c-1.4,0-2.7-0.3-3.8-0.8c-1.1-0.6-2.1-1.3-3-2.3c-0.8-1-1.5-2-1.9-3.2c-0.5-1.2-0.7-2.4-0.7-3.7
		c0-1.3,0.2-2.6,0.7-3.8c0.5-1.2,1.2-2.3,2-3.2c0.9-0.9,1.9-1.7,3-2.2s2.4-0.8,3.8-0.8c1.4,0,2.7,0.3,3.8,0.9c1.1,0.6,2.1,1.3,3,2.3
		c0.8,1,1.5,2,1.9,3.2c0.4,1.2,0.7,2.4,0.7,3.7c0,1.3-0.2,2.5-0.7,3.7c-0.5,1.2-1.1,2.3-2,3.2c-0.9,0.9-1.9,1.7-3,2.2
		S1035.5,177.8,1034.1,177.8z M1027.9,167.8c0,0.9,0.1,1.8,0.4,2.7c0.3,0.9,0.7,1.6,1.2,2.3s1.2,1.2,2,1.6c0.8,0.4,1.6,0.6,2.6,0.6
		c1,0,1.9-0.2,2.7-0.6s1.4-1,2-1.6c0.5-0.7,0.9-1.5,1.2-2.3c0.3-0.8,0.4-1.7,0.4-2.6c0-0.9-0.1-1.8-0.4-2.7s-0.7-1.6-1.3-2.3
		c-0.6-0.7-1.2-1.2-2-1.6c-0.8-0.4-1.6-0.6-2.6-0.6c-1,0-1.9,0.2-2.7,0.6c-0.8,0.4-1.4,1-2,1.6c-0.5,0.7-0.9,1.5-1.2,2.3
		C1028,166.1,1027.9,166.9,1027.9,167.8z"/>
	<path class="st0" d="M1049.9,163.8v13.9h-3.1V158h2.5l11.1,14.2V158h3.1v19.7h-2.7L1049.9,163.8z"/>
	<path class="st0" d="M1081.6,174.9v2.7h-13.5V158h13.2v2.7h-10.1v5.6h8.8v2.5h-8.8v6H1081.6z"/>
	<path class="st0" d="M1096.4,162.6c-0.2-0.2-0.4-0.4-0.8-0.7s-0.8-0.4-1.2-0.6c-0.5-0.2-1-0.4-1.6-0.5c-0.6-0.1-1.1-0.2-1.7-0.2
		c-1.3,0-2.3,0.2-2.9,0.7c-0.6,0.5-0.9,1.1-0.9,2c0,0.6,0.2,1.1,0.5,1.5c0.4,0.4,0.9,0.7,1.6,0.9c0.7,0.2,1.6,0.5,2.7,0.7
		c1.3,0.3,2.5,0.7,3.5,1.1c1,0.4,1.7,1,2.2,1.7c0.5,0.7,0.8,1.7,0.8,2.9c0,1-0.2,1.8-0.6,2.5c-0.4,0.7-0.9,1.3-1.6,1.8
		c-0.7,0.5-1.4,0.8-2.3,1c-0.9,0.2-1.8,0.3-2.8,0.3c-1,0-2-0.1-2.9-0.3c-1-0.2-1.9-0.5-2.8-0.9s-1.7-0.9-2.5-1.5l1.4-2.7
		c0.2,0.2,0.6,0.5,1,0.8c0.5,0.3,1,0.6,1.6,0.8s1.3,0.5,2,0.7c0.7,0.2,1.4,0.3,2.2,0.3c1.2,0,2.2-0.2,2.8-0.6c0.7-0.4,1-1.1,1-1.9
		c0-0.6-0.2-1.2-0.7-1.6c-0.4-0.4-1.1-0.7-1.9-1c-0.8-0.3-1.8-0.6-2.9-0.8c-1.3-0.3-2.4-0.7-3.2-1.1c-0.9-0.4-1.5-1-1.9-1.6
		c-0.4-0.6-0.6-1.5-0.6-2.5c0-1.3,0.3-2.4,0.9-3.3s1.5-1.6,2.6-2c1.1-0.5,2.3-0.7,3.6-0.7c0.9,0,1.7,0.1,2.5,0.3
		c0.8,0.2,1.6,0.5,2.2,0.8c0.7,0.3,1.3,0.7,1.8,1.1L1096.4,162.6z"/>
</g>
<g class="st1">
	<path class="st0" d="M925,210.9v-19.7h3.1v19.7H925z"/>
	<path class="st0" d="M935.7,197v13.9h-3.1v-19.7h2.6l11.1,14.2v-14.2h3.1v19.7h-2.7L935.7,197z"/>
	<path class="st0" d="M968.2,194h-6.5v16.9h-3.1V194H952v-2.7h16.2V194z"/>
</g>
<g class="st1">
	<path class="st0" d="M984.7,208.2v2.7h-13.5v-19.7h13.2v2.7h-10.1v5.6h8.8v2.5h-8.8v6H984.7z"/>
</g>
<g class="st1">
	<path class="st0" d="M995.6,211.1c-1.3,0-2.5-0.3-3.6-0.8c-1.1-0.5-2.1-1.3-3-2.2c-0.8-0.9-1.5-2-2-3.2c-0.5-1.2-0.7-2.5-0.7-3.8
		c0-1.3,0.2-2.6,0.7-3.8c0.5-1.2,1.1-2.2,2-3.1c0.8-0.9,1.8-1.6,3-2.2s2.4-0.8,3.7-0.8c1.9,0,3.5,0.4,4.8,1.2
		c1.3,0.8,2.2,1.8,2.9,3.1l-2.4,1.7c-0.5-1.1-1.3-1.9-2.2-2.4c-0.9-0.5-2-0.8-3.1-0.8c-0.9,0-1.8,0.2-2.5,0.6
		c-0.7,0.4-1.4,0.9-1.9,1.6c-0.5,0.7-0.9,1.4-1.2,2.3c-0.3,0.9-0.4,1.8-0.4,2.7c0,1,0.2,1.9,0.5,2.8c0.3,0.9,0.8,1.6,1.3,2.3
		c0.6,0.7,1.2,1.2,2,1.5c0.8,0.4,1.6,0.6,2.5,0.6c1.1,0,2.1-0.3,3.1-0.8c1-0.5,1.9-1.4,2.7-2.5v3.2
		C999.9,210.1,997.9,211.1,995.6,211.1z M1001.3,203.3h-4.1V201h6.7v10h-2.6V203.3z"/>
	<path class="st0" d="M1007.5,210.9v-19.7h8.6c0.9,0,1.7,0.2,2.4,0.6c0.7,0.4,1.4,0.9,1.9,1.5c0.5,0.6,1,1.3,1.3,2.1
		s0.5,1.5,0.5,2.3c0,0.9-0.2,1.7-0.5,2.5c-0.3,0.8-0.8,1.5-1.3,2c-0.6,0.6-1.3,1-2,1.2l4.6,7.5h-3.5l-4.3-6.8h-4.5v6.8H1007.5z
		 M1010.6,201.3h5.4c0.6,0,1.1-0.2,1.5-0.5c0.4-0.3,0.8-0.8,1.1-1.3s0.4-1.2,0.4-1.8c0-0.7-0.2-1.3-0.5-1.9s-0.7-1-1.2-1.3
		s-1-0.5-1.5-0.5h-5.2V201.3z"/>
	<path class="st0" d="M1031.5,191.3h2.9l7.7,19.7h-3.3l-1.9-5.3h-7.9l-1.9,5.3h-3.3L1031.5,191.3z M1036,203.3l-3.1-8.6l-3.1,8.6
		H1036z"/>
	<path class="st0" d="M1044.5,210.9v-19.7h3.1v16.9h10.5v2.7H1044.5z"/>
	<path class="st0" d="M1074.2,208.2v2.7h-13.5v-19.7h13.2v2.7h-10.1v5.6h8.8v2.5h-8.8v6H1074.2z"/>
	<path class="st0" d="M1089,195.9c-0.2-0.2-0.4-0.4-0.8-0.7c-0.4-0.2-0.8-0.4-1.2-0.6c-0.5-0.2-1-0.4-1.6-0.5s-1.1-0.2-1.7-0.2
		c-1.3,0-2.3,0.2-2.9,0.7c-0.6,0.5-0.9,1.1-0.9,2c0,0.6,0.2,1.1,0.5,1.5c0.4,0.4,0.9,0.7,1.6,0.9c0.7,0.2,1.6,0.5,2.7,0.7
		c1.3,0.3,2.5,0.7,3.5,1.1c1,0.4,1.7,1,2.2,1.7c0.5,0.7,0.8,1.7,0.8,2.9c0,1-0.2,1.8-0.6,2.5c-0.4,0.7-0.9,1.3-1.6,1.8
		c-0.7,0.5-1.4,0.8-2.3,1c-0.9,0.2-1.8,0.3-2.8,0.3c-1,0-2-0.1-2.9-0.3c-1-0.2-1.9-0.5-2.8-0.9c-0.9-0.4-1.7-0.9-2.5-1.5l1.4-2.7
		c0.2,0.2,0.6,0.5,1,0.8c0.5,0.3,1,0.6,1.6,0.8c0.6,0.3,1.3,0.5,2,0.7c0.7,0.2,1.4,0.3,2.2,0.3c1.2,0,2.2-0.2,2.8-0.6
		c0.7-0.4,1-1.1,1-1.9c0-0.6-0.2-1.2-0.7-1.6c-0.4-0.4-1.1-0.7-1.9-1s-1.8-0.6-2.9-0.8c-1.3-0.3-2.4-0.7-3.2-1.1
		c-0.9-0.4-1.5-1-1.9-1.6c-0.4-0.6-0.6-1.5-0.6-2.5c0-1.3,0.3-2.4,0.9-3.3s1.5-1.6,2.6-2c1.1-0.5,2.3-0.7,3.6-0.7
		c0.9,0,1.7,0.1,2.5,0.3c0.8,0.2,1.6,0.5,2.2,0.8c0.7,0.3,1.3,0.7,1.8,1.1L1089,195.9z"/>
</g>
<g class="st1">
	<path class="st0" d="M941.7,364.2v-14l-5.8,10.6h-1.8l-5.8-10.6v14h-3.1v-19.7h3.3l6.5,12l6.5-12h3.3v19.7H941.7z"/>
	<path class="st0" d="M954.9,344.5h2.9l7.7,19.7h-3.3l-1.9-5.3h-7.9l-1.9,5.3h-3.3L954.9,344.5z M959.5,356.5l-3.1-8.6l-3.1,8.6
		H959.5z"/>
	<path class="st0" d="M971.1,350.3v13.9H968v-19.7h2.6l11.1,14.2v-14.2h3.1v19.7h-2.7L971.1,350.3z"/>
	<path class="st0" d="M1003.7,347.2h-6.5v16.9H994v-16.9h-6.6v-2.7h16.2V347.2z"/>
	<path class="st0" d="M1019.8,361.4v2.7h-13.5v-19.7h13.2v2.7h-10.1v5.6h8.8v2.5h-8.8v6H1019.8z"/>
	<path class="st0" d="M1026.1,350.3v13.9h-3.1v-19.7h2.5l11.1,14.2v-14.2h3.1v19.7h-2.7L1026.1,350.3z"/>
	<path class="st0" d="M1044.3,364.2v-19.7h3.1v19.7H1044.3z"/>
	<path class="st0" d="M1068.4,364.2v-14l-5.8,10.6h-1.8l-5.8-10.6v14h-3.1v-19.7h3.3l6.5,12l6.5-12h3.3v19.7H1068.4z"/>
	<path class="st0" d="M1075.9,364.2v-19.7h3.1v19.7H1075.9z"/>
	<path class="st0" d="M1097,361.4v2.7h-13.5v-19.7h13.2v2.7h-10.1v5.6h8.8v2.5h-8.8v6H1097z"/>
	<path class="st0" d="M1103.3,350.3v13.9h-3.1v-19.7h2.5l11.1,14.2v-14.2h3.1v19.7h-2.7L1103.3,350.3z"/>
</g>
<g class="st1">
	<path class="st0" d="M1136,347.2h-6.5v16.9h-3.1v-16.9h-6.6v-2.7h16.2V347.2z"/>
</g>
<g class="st1">
	<path class="st0" d="M1146.4,364.3c-1.4,0-2.7-0.3-3.8-0.8c-1.1-0.6-2.1-1.3-3-2.3c-0.8-1-1.5-2-1.9-3.2c-0.5-1.2-0.7-2.4-0.7-3.7
		c0-1.3,0.2-2.6,0.7-3.8s1.2-2.3,2-3.2c0.9-0.9,1.9-1.7,3-2.2s2.4-0.8,3.8-0.8c1.4,0,2.7,0.3,3.8,0.9c1.1,0.6,2.1,1.3,3,2.3
		c0.8,1,1.5,2,1.9,3.2s0.7,2.4,0.7,3.7c0,1.3-0.2,2.5-0.7,3.7c-0.5,1.2-1.1,2.3-2,3.2c-0.9,0.9-1.9,1.7-3,2.2
		C1149,364.1,1147.8,364.3,1146.4,364.3z M1140.2,354.3c0,0.9,0.1,1.8,0.4,2.7c0.3,0.9,0.7,1.6,1.2,2.3c0.5,0.7,1.2,1.2,2,1.6
		s1.6,0.6,2.6,0.6c1,0,1.9-0.2,2.7-0.6c0.8-0.4,1.4-1,2-1.6c0.5-0.7,0.9-1.5,1.2-2.3c0.3-0.8,0.4-1.7,0.4-2.6c0-0.9-0.1-1.8-0.4-2.7
		c-0.3-0.8-0.7-1.6-1.3-2.3c-0.6-0.7-1.2-1.2-2-1.6s-1.6-0.6-2.6-0.6c-1,0-1.9,0.2-2.7,0.6c-0.8,0.4-1.4,1-2,1.6s-0.9,1.5-1.2,2.3
		C1140.3,352.6,1140.2,353.5,1140.2,354.3z"/>
</g>
<g class="st1">
	<path class="st0" d="M4.2,299.6v-19.7h8.6c0.9,0,1.7,0.2,2.4,0.6c0.7,0.4,1.4,0.9,1.9,1.5c0.5,0.6,1,1.3,1.3,2.1
		c0.3,0.8,0.5,1.5,0.5,2.3c0,0.9-0.2,1.7-0.5,2.5c-0.3,0.8-0.8,1.5-1.3,2c-0.6,0.6-1.3,1-2,1.2l4.6,7.5h-3.5l-4.3-6.8H7.4v6.8H4.2z
		 M7.4,290h5.4c0.6,0,1.1-0.2,1.5-0.5c0.4-0.3,0.8-0.8,1.1-1.3c0.3-0.6,0.4-1.2,0.4-1.8c0-0.7-0.2-1.3-0.5-1.9
		c-0.3-0.6-0.7-1-1.2-1.3c-0.5-0.3-1-0.5-1.5-0.5H7.4V290z"/>
	<path class="st0" d="M36,296.9v2.7H22.5v-19.7h13.2v2.7H25.7v5.6h8.8v2.5h-8.8v6H36z"/>
	<path class="st0" d="M39.3,299.6v-19.7h8.3c0.9,0,1.7,0.2,2.4,0.6c0.7,0.4,1.4,0.9,1.9,1.5c0.6,0.6,1,1.3,1.3,2.1
		c0.3,0.8,0.4,1.5,0.4,2.3c0,1.1-0.2,2.1-0.7,3.1s-1.2,1.8-2.1,2.4s-1.9,0.9-3.1,0.9h-5.3v6.8H39.3z M42.4,290h5.1
		c0.6,0,1.1-0.2,1.5-0.5s0.8-0.8,1.1-1.3c0.3-0.6,0.4-1.2,0.4-1.9c0-0.7-0.1-1.4-0.4-1.9c-0.3-0.5-0.7-1-1.2-1.3s-1-0.5-1.5-0.5h-5
		V290z"/>
	<path class="st0" d="M64.7,299.8c-1.6,0-2.9-0.3-4-0.8s-1.9-1.3-2.6-2.2c-0.7-0.9-1.1-2-1.4-3.2c-0.3-1.2-0.5-2.4-0.5-3.7v-10h3.1
		v10c0,0.9,0.1,1.8,0.3,2.6s0.5,1.6,0.9,2.3c0.4,0.7,1,1.2,1.6,1.6c0.7,0.4,1.5,0.6,2.6,0.6c1.1,0,1.9-0.2,2.6-0.6s1.2-0.9,1.6-1.6
		c0.4-0.7,0.7-1.4,0.9-2.3c0.2-0.8,0.3-1.7,0.3-2.6v-10h3.1v10c0,1.3-0.2,2.6-0.5,3.8c-0.3,1.2-0.8,2.2-1.5,3.1
		c-0.7,0.9-1.6,1.6-2.6,2.1C67.5,299.5,66.2,299.8,64.7,299.8z"/>
	<path class="st0" d="M90.9,296.9v2.7H77.4v-19.7h13.2v2.7H80.5v5.6h8.8v2.5h-8.8v6H90.9z"/>
	<path class="st0" d="M105.7,284.6c-0.2-0.2-0.4-0.4-0.8-0.7s-0.8-0.4-1.2-0.6s-1-0.4-1.6-0.5c-0.6-0.1-1.1-0.2-1.7-0.2
		c-1.3,0-2.3,0.2-2.9,0.7c-0.6,0.5-0.9,1.1-0.9,2c0,0.6,0.2,1.1,0.5,1.5c0.4,0.4,0.9,0.7,1.6,0.9c0.7,0.2,1.6,0.5,2.7,0.7
		c1.3,0.3,2.5,0.7,3.5,1.1s1.7,1,2.2,1.7c0.5,0.7,0.8,1.7,0.8,2.9c0,1-0.2,1.8-0.6,2.5c-0.4,0.7-0.9,1.3-1.6,1.8
		c-0.7,0.5-1.4,0.8-2.3,1c-0.9,0.2-1.8,0.3-2.8,0.3c-1,0-2-0.1-2.9-0.3c-1-0.2-1.9-0.5-2.8-0.9s-1.7-0.9-2.5-1.5l1.4-2.7
		c0.2,0.2,0.6,0.5,1,0.8c0.5,0.3,1,0.6,1.6,0.8s1.3,0.5,2,0.7c0.7,0.2,1.4,0.3,2.2,0.3c1.2,0,2.2-0.2,2.8-0.6c0.7-0.4,1-1.1,1-1.9
		c0-0.6-0.2-1.2-0.7-1.6c-0.4-0.4-1.1-0.7-1.9-1c-0.8-0.3-1.8-0.6-2.9-0.8c-1.3-0.3-2.4-0.7-3.2-1.1c-0.9-0.4-1.5-1-1.9-1.6
		s-0.6-1.5-0.6-2.5c0-1.3,0.3-2.4,0.9-3.3s1.5-1.6,2.6-2c1.1-0.5,2.3-0.7,3.6-0.7c0.9,0,1.7,0.1,2.5,0.3c0.8,0.2,1.6,0.5,2.2,0.8
		c0.7,0.3,1.3,0.7,1.8,1.1L105.7,284.6z"/>
</g>
<g class="st1">
	<path class="st0" d="M125.5,282.7h-6.5v16.9h-3.1v-16.9h-6.6v-2.7h16.2V282.7z"/>
</g>
<g class="st1">
	<path class="st0" d="M135.9,299.8c-1.4,0-2.7-0.3-3.8-0.8c-1.1-0.6-2.1-1.3-3-2.3c-0.8-1-1.5-2-1.9-3.2c-0.5-1.2-0.7-2.4-0.7-3.7
		c0-1.3,0.2-2.6,0.7-3.8c0.5-1.2,1.2-2.3,2-3.2c0.9-0.9,1.9-1.7,3-2.2s2.4-0.8,3.8-0.8c1.4,0,2.7,0.3,3.8,0.9c1.1,0.6,2.1,1.3,3,2.3
		c0.8,1,1.5,2,1.9,3.2c0.4,1.2,0.7,2.4,0.7,3.7c0,1.3-0.2,2.5-0.7,3.7c-0.5,1.2-1.1,2.3-2,3.2c-0.9,0.9-1.9,1.7-3,2.2
		C138.6,299.5,137.3,299.8,135.9,299.8z M129.7,289.8c0,0.9,0.1,1.8,0.4,2.7c0.3,0.9,0.7,1.6,1.2,2.3c0.5,0.7,1.2,1.2,2,1.6
		c0.8,0.4,1.6,0.6,2.6,0.6c1,0,1.9-0.2,2.7-0.6c0.8-0.4,1.4-1,2-1.6c0.5-0.7,0.9-1.5,1.2-2.3c0.3-0.8,0.4-1.7,0.4-2.6
		c0-0.9-0.1-1.8-0.4-2.7c-0.3-0.8-0.7-1.6-1.3-2.3c-0.6-0.7-1.2-1.2-2-1.6c-0.8-0.4-1.6-0.6-2.6-0.6c-1,0-1.9,0.2-2.7,0.6
		c-0.8,0.4-1.4,1-2,1.6c-0.5,0.7-0.9,1.5-1.2,2.3C129.8,288,129.7,288.9,129.7,289.8z"/>
</g>
<g class="st1">
	<path class="st0" d="M160.3,284.6c-0.2-0.2-0.4-0.4-0.8-0.7s-0.8-0.4-1.2-0.6s-1-0.4-1.6-0.5c-0.6-0.1-1.1-0.2-1.7-0.2
		c-1.3,0-2.3,0.2-2.9,0.7c-0.6,0.5-0.9,1.1-0.9,2c0,0.6,0.2,1.1,0.5,1.5c0.4,0.4,0.9,0.7,1.6,0.9c0.7,0.2,1.6,0.5,2.7,0.7
		c1.3,0.3,2.5,0.7,3.5,1.1s1.7,1,2.2,1.7c0.5,0.7,0.8,1.7,0.8,2.9c0,1-0.2,1.8-0.6,2.5c-0.4,0.7-0.9,1.3-1.6,1.8
		c-0.7,0.5-1.4,0.8-2.3,1c-0.9,0.2-1.8,0.3-2.8,0.3c-1,0-2-0.1-2.9-0.3c-1-0.2-1.9-0.5-2.8-0.9s-1.7-0.9-2.5-1.5l1.4-2.7
		c0.2,0.2,0.6,0.5,1,0.8c0.5,0.3,1,0.6,1.6,0.8s1.3,0.5,2,0.7c0.7,0.2,1.4,0.3,2.2,0.3c1.2,0,2.2-0.2,2.8-0.6c0.7-0.4,1-1.1,1-1.9
		c0-0.6-0.2-1.2-0.7-1.6c-0.4-0.4-1.1-0.7-1.9-1c-0.8-0.3-1.8-0.6-2.9-0.8c-1.3-0.3-2.4-0.7-3.2-1.1c-0.9-0.4-1.5-1-1.9-1.6
		s-0.6-1.5-0.6-2.5c0-1.3,0.3-2.4,0.9-3.3s1.5-1.6,2.6-2c1.1-0.5,2.3-0.7,3.6-0.7c0.9,0,1.7,0.1,2.5,0.3c0.8,0.2,1.6,0.5,2.2,0.8
		c0.7,0.3,1.3,0.7,1.8,1.1L160.3,284.6z"/>
</g>
<g>
	<polygon class="st0" points="631.9,215.3 621,263 553.5,295.5 543.7,300.2 533.2,295.1 466.4,263 455.5,215.3 476.4,215.3 
		484,248.9 533.2,272.6 543.7,277.6 553.5,272.9 603.4,248.9 611.1,215.3 	"/>
</g>
<g>
	<path class="st2" d="M609.8,173.9h-56.3v99l-9.8,4.7l-10.5-5.1v-98.7h-55.6l16.2-20.3h39.4v-22.8c3.2,1.1,6.6,1.7,10.2,1.7
		s7-0.6,10.2-1.7v22.8h40.1L609.8,173.9L609.8,173.9z"/>
</g>
<g>
	<path class="st0" d="M553.5,72.6c-3.2-1.1-6.6-1.7-10.2-1.7s-7,0.6-10.2,1.7c-12,4.2-20.7,15.7-20.7,29.1c0,3.7,0.7,7.2,1.8,10.5
		c3.2,8.7,10.1,15.6,18.8,18.6c3.2,1.1,6.6,1.7,10.2,1.7s7-0.6,10.2-1.7c8.7-3.1,15.7-9.9,18.8-18.6c1.2-3.3,1.8-6.8,1.8-10.5
		C574.2,88.3,565.5,76.8,553.5,72.6L553.5,72.6z M543.7,91.6c4.7,0,8.6,3.2,9.8,7.4c0.2,0.9,0.4,1.8,0.4,2.7s-0.1,1.8-0.4,2.7
		c-1.2,4.3-5.1,7.4-9.8,7.4c-5.6,0-10.2-4.6-10.2-10.2S538.1,91.6,543.7,91.6L543.7,91.6z"/>
</g>
</svg>
