<?xml version="1.0" encoding="UTF-8"?><svg id="Layer_2" xmlns="http://www.w3.org/2000/svg" viewBox="0 0 1209.45 370.36"><defs><style>.cls-1{letter-spacing:-.01em;}.cls-2{letter-spacing:-.02em;}.cls-3{letter-spacing:-.02em;}.cls-4{letter-spacing:-.01em;}.cls-5{letter-spacing:-.03em;}.cls-6{stroke-dasharray:0 0 12.02 4.01;}.cls-6,.cls-7{fill:none;stroke:#00a1bc;stroke-miterlimit:10;stroke-width:2px;}.cls-7{stroke-dasharray:0 0 12 4;}.cls-8{letter-spacing:0em;}.cls-9{letter-spacing:-.07em;}.cls-10{fill:#03538e;}.cls-11{font-family:RalewayRoman-Bold, Raleway;font-size:27.72px;font-variation-settings:'wght' 700;font-weight:700;}.cls-11,.cls-12{fill:#00a1bc;}.cls-13{letter-spacing:-.03em;}.cls-14{letter-spacing:-.02em;}.cls-15{letter-spacing:0em;}.cls-16{letter-spacing:-.03em;}</style></defs><g id="Layer_1-2"><circle class="cls-6" cx="543.72" cy="185.54" r="137.7"/><polyline class="cls-7" points="895.81 15.3 798.32 15.3 689.14 124.48 667.17 124.48"/><polygon class="cls-12" points="894.18 27.45 894.18 3.15 906.32 15.3 894.18 27.45"/><polyline class="cls-7" points="895.81 355.78 798.32 355.78 689.14 246.6 667.17 246.6"/><polygon class="cls-12" points="894.18 367.93 894.18 343.63 906.32 355.78 894.18 367.93"/><polyline class="cls-7" points="191.64 291.22 289.12 291.22 333.74 246.6 420.95 246.6"/><polygon class="cls-12" points="193.27 279.07 193.27 303.37 181.12 291.22 193.27 279.07"/><polyline class="cls-7" points="191.64 79.86 289.12 79.86 333.74 124.48 420.95 124.48"/><polygon class="cls-12" points="193.27 67.71 193.27 92.01 181.12 79.86 193.27 67.71"/><line class="cls-7" x1="895.81" y1="185.54" x2="680.93" y2="185.54"/><polygon class="cls-12" points="894.18 197.69 894.18 173.39 906.32 185.54 894.18 197.69"/><text class="cls-11" transform="translate(36.32 70.9)"><tspan x="0" y="0">SE</tspan><tspan class="cls-14" x="33.66" y="0">R</tspan><tspan x="51.43" y="0">VICIO</tspan><tspan x="-35.96" y="33.27">P</tspan><tspan class="cls-15" x="-18.69" y="33.27">O</tspan><tspan x="2.19" y="33.27">STVEN</tspan><tspan class="cls-9" x="92.9" y="33.27">T</tspan><tspan class="cls-13" x="108.23" y="33.27">A</tspan></text><text class="cls-11" transform="translate(924.78 23.7)"><tspan class="cls-8" x="0" y="0">A</tspan><tspan x="18.38" y="0">SISTENCI</tspan><tspan class="cls-13" x="142.22" y="0">A</tspan><tspan class="cls-16" x="159.99" y="0"> </tspan><tspan x="165.84" y="0">T</tspan><tspan class="cls-4" x="183" y="0">E</tspan><tspan x="199.31" y="0">CNI</tspan><tspan class="cls-1" x="247.41" y="0">C</tspan><tspan class="cls-5" x="266.15" y="0">A</tspan></text><text class="cls-11" transform="translate(924.78 177.67)"><tspan x="0" y="0">SO</tspan><tspan class="cls-3" x="37.95" y="0">L</tspan><tspan x="53.62" y="0">UCIONES</tspan><tspan x="0" y="33.27">INT</tspan><tspan class="cls-4" x="46.24" y="33.27">E</tspan><tspan x="62.54" y="33.27">GRALES</tspan></text><text class="cls-11" transform="translate(924.92 364.18)"><tspan x="0" y="0">MANTENIMIEN</tspan><tspan class="cls-2" x="196.39" y="0">T</tspan><tspan x="213.11" y="0">O</tspan></text><text class="cls-11" transform="translate(0 299.62)"><tspan x="0" y="0">REPUES</tspan><tspan class="cls-2" x="106.82" y="0">T</tspan><tspan class="cls-15" x="123.54" y="0">O</tspan><tspan x="144.41" y="0">S</tspan></text><polygon class="cls-12" points="631.91 215.26 621.02 262.96 553.51 295.47 543.72 300.19 533.21 295.12 466.43 262.96 455.54 215.26 476.37 215.26 484.05 248.91 533.21 272.58 543.72 277.64 553.51 272.93 603.4 248.91 611.08 215.26 631.91 215.26"/><path class="cls-10" d="m609.81,173.91h-56.3v99.03l-9.79,4.71-10.52-5.06v-98.67h-55.57l16.19-20.31h39.37v-22.76c3.18,1.11,6.6,1.71,10.16,1.71s6.97-.6,10.15-1.71v22.76h40.1l16.19,20.31Z"/><path class="cls-12" d="m553.51,72.61c-3.18-1.11-6.59-1.71-10.15-1.71s-6.98.6-10.16,1.71c-12.04,4.2-20.68,15.65-20.68,29.12,0,3.69.65,7.23,1.84,10.52,3.15,8.68,10.09,15.55,18.83,18.59,3.18,1.11,6.6,1.71,10.16,1.71s6.97-.6,10.15-1.71c8.74-3.05,15.68-9.91,18.83-18.59,1.19-3.29,1.84-6.83,1.84-10.52,0-13.47-8.63-24.92-20.68-29.12Zm-9.79,18.96c4.67,0,8.61,3.15,9.79,7.44.24.86.37,1.77.37,2.71s-.13,1.85-.37,2.71c-1.19,4.29-5.12,7.44-9.79,7.44-5.61,0-10.16-4.55-10.16-10.15s4.55-10.16,10.16-10.16Z"/></g></svg>