<?xml version="1.0" encoding="UTF-8"?><svg id="Layer_2" xmlns="http://www.w3.org/2000/svg" viewBox="0 0 45.17 58.72"><defs><style>.cls-1{fill:#fff;}</style></defs><g id="Layer_1-2"><polygon class="cls-1" points="45.17 36.97 42.38 49.19 25.09 57.51 22.58 58.72 19.89 57.42 2.79 49.19 0 36.97 5.33 36.97 7.3 45.59 19.89 51.65 22.58 52.95 25.09 51.74 37.87 45.59 39.83 36.97 45.17 36.97"/><path class="cls-1" d="m39.51,26.38h-14.42v25.36l-2.51,1.21-2.69-1.3v-25.27H5.66l4.15-5.2h10.08v-5.83c.81.28,1.69.44,2.6.44s1.78-.15,2.6-.44v5.83h10.27l4.15,5.2Z"/><path class="cls-1" d="m25.09.44c-.81-.28-1.69-.44-2.6-.44s-1.79.15-2.6.44c-3.08,1.08-5.29,4.01-5.29,7.46,0,.95.17,1.85.47,2.69.81,2.22,2.58,3.98,4.82,4.76.81.28,1.69.44,2.6.44s1.78-.15,2.6-.44c2.24-.78,4.02-2.54,4.82-4.76.3-.84.47-1.75.47-2.69,0-3.45-2.21-6.38-5.29-7.46Zm-2.51,4.86c1.2,0,2.2.81,2.51,1.91.06.22.09.45.09.69s-.03.47-.09.69c-.3,1.1-1.31,1.9-2.51,1.9-1.44,0-2.6-1.16-2.6-2.6s1.16-2.6,2.6-2.6Z"/></g></svg>