<?xml version="1.0" encoding="UTF-8"?><svg id="Layer_2" xmlns="http://www.w3.org/2000/svg" viewBox="0 0 386.47 318.67"><defs><style>.cls-1{fill:#fff;}</style></defs><g id="Layer_1-2"><path class="cls-1" d="m27.06,269.79c0-3.07.58-6.08,1.74-9.03,1.16-2.95,2.84-5.63,5.06-8.04,2.22-2.41,4.92-4.33,8.11-5.77,3.19-1.44,6.79-2.16,10.8-2.16,4.82,0,9.02,1,12.61,3.01,3.59,2.01,6.26,4.66,8,7.97l-10.55,7.51c-.61-1.65-1.5-2.93-2.66-3.82-1.16-.9-2.41-1.52-3.75-1.88s-2.66-.53-3.93-.53c-1.98,0-3.7.39-5.14,1.17-1.44.78-2.62,1.81-3.54,3.08-.92,1.27-1.61,2.69-2.05,4.25-.45,1.56-.67,3.12-.67,4.68,0,1.75.26,3.42.78,5.03.52,1.61,1.27,3.03,2.27,4.29.99,1.25,2.21,2.23,3.65,2.94,1.44.71,3.06,1.06,4.85,1.06,1.28,0,2.57-.2,3.9-.6,1.32-.4,2.53-1.05,3.61-1.95,1.09-.9,1.91-2.1,2.48-3.61l11.26,6.73c-.99,2.46-2.65,4.56-4.96,6.3-2.31,1.75-4.93,3.08-7.86,4-2.93.92-5.83,1.38-8.71,1.38-3.73,0-7.14-.74-10.23-2.23-3.09-1.49-5.76-3.47-8-5.95-2.24-2.48-3.98-5.26-5.21-8.36-1.23-3.09-1.84-6.24-1.84-9.46Z"/><path class="cls-1" d="m100.23,245.14h15.44l16.01,50.29h-14.02l-2.6-9.85h-14.21l-2.6,9.85h-14.1l16.08-50.29Zm12.39,31.24l-4.67-17.71-4.67,17.71h9.35Z"/><path class="cls-1" d="m160.29,270.71v24.72h-13.81v-50.29h10.77l20.19,25.57v-25.57h13.81v50.29h-10.98l-19.97-24.72Z"/><path class="cls-1" d="m220.21,245.14l9.85,34.35,9.7-34.35h14.52l-17.35,50.29h-13.74l-17.57-50.29h14.59Z"/><path class="cls-1" d="m304.57,283.39v12.04h-35.84v-50.29h35.2v12.04h-21.39v7.08h18.27v11.19h-18.27v7.93h22.03Z"/><path class="cls-1" d="m321.64,295.43v-50.29h13.81v38.25h22.81v12.04h-36.62Z"/><polygon class="cls-1" points="283.53 144.36 272.65 192.06 205.14 224.57 195.35 229.29 184.83 224.23 118.05 192.06 107.17 144.36 128 144.36 135.68 178.01 184.83 201.68 195.35 206.74 205.14 202.03 255.02 178.01 262.7 144.36 283.53 144.36"/><path class="cls-1" d="m261.43,103.01h-56.3v99.03l-9.79,4.71-10.52-5.06v-98.67h-55.57l16.19-20.31h39.37v-22.76c3.18,1.11,6.6,1.71,10.16,1.71s6.97-.6,10.15-1.71v22.76h40.1l16.19,20.31Z"/><path class="cls-1" d="m205.14,1.71c-3.18-1.11-6.59-1.71-10.15-1.71s-6.98.6-10.16,1.71c-12.04,4.2-20.68,15.65-20.68,29.12,0,3.69.65,7.23,1.84,10.52,3.15,8.68,10.09,15.55,18.83,18.59,3.18,1.11,6.6,1.71,10.16,1.71s6.97-.6,10.15-1.71c8.74-3.05,15.68-9.91,18.83-18.59,1.19-3.29,1.84-6.83,1.84-10.52,0-13.47-8.63-24.92-20.68-29.12Zm-9.79,18.96c4.67,0,8.61,3.15,9.79,7.44.24.86.37,1.77.37,2.71s-.13,1.85-.37,2.71c-1.19,4.29-5.12,7.44-9.79,7.44-5.61,0-10.16-4.55-10.16-10.15s4.55-10.16,10.16-10.16Z"/><path class="cls-1" d="m9.86,318.58v-7.92l-3.11,5.9h-1.31l-3.09-5.9v7.92H0v-12.07h2.53l3.55,6.85,3.59-6.85h2.52v12.07h-2.33Z"/><path class="cls-1" d="m19.34,306.51h2.38l4.44,12.07h-2.41l-1-3.01h-4.43l-1.01,3.01h-2.41l4.45-12.07Zm2.85,7.41l-1.66-4.98-1.67,4.98h3.33Z"/><path class="cls-1" d="m28.85,318.58v-12.07h5.35c.54,0,1.05.11,1.52.34s.88.53,1.22.92c.35.39.61.82.8,1.29.19.48.28.96.28,1.46s-.09,1-.26,1.46-.43.87-.76,1.23c-.33.36-.71.63-1.16.82l2.75,4.54h-2.58l-2.48-4.05h-2.35v4.05h-2.35Zm2.35-6.1h2.94c.29,0,.56-.09.78-.26.23-.18.41-.41.54-.71.14-.29.2-.62.2-.99s-.08-.71-.24-1-.36-.53-.59-.7c-.24-.17-.5-.26-.78-.26h-2.86v3.91Z"/><path class="cls-1" d="m41.51,318.58v-12.07h2.35v12.07h-2.35Z"/><path class="cls-1" d="m56.74,308.57h-3.84v10.01h-2.33v-10.01h-3.88v-2.06h10.05v2.06Z"/><path class="cls-1" d="m59.62,318.58v-12.07h2.35v12.07h-2.35Z"/><path class="cls-1" d="m75.7,318.58v-7.92l-3.11,5.9h-1.31l-3.09-5.9v7.92h-2.35v-12.07h2.53l3.55,6.85,3.59-6.85h2.52v12.07h-2.33Z"/><path class="cls-1" d="m90.28,316.53v2.06h-8.38v-12.07h8.23v2.06h-5.88v2.91h5.07v1.9h-5.07v3.15h6.03Z"/><path class="cls-1" d="m107.3,316.53v2.06h-8.38v-12.07h8.23v2.06h-5.88v2.91h5.07v1.9h-5.07v3.15h6.03Z"/><path class="cls-1" d="m112.84,310.83v7.75h-2.35v-12.07h1.89l6.22,7.96v-7.94h2.33v12.05h-1.94l-6.15-7.75Z"/><path class="cls-1" d="m129.84,318.67c-.79,0-1.54-.16-2.23-.47-.69-.31-1.3-.75-1.83-1.32-.53-.57-.94-1.22-1.23-1.96-.3-.74-.44-1.56-.44-2.44,0-.83.15-1.61.45-2.34s.71-1.38,1.24-1.94c.53-.56,1.15-1,1.86-1.31.71-.31,1.48-.47,2.31-.47,1.14,0,2.12.24,2.93.71.81.48,1.42,1.12,1.83,1.92l-1.75,1.29c-.29-.6-.72-1.06-1.27-1.38-.56-.32-1.16-.48-1.8-.48-.51,0-.98.11-1.4.32-.43.22-.79.51-1.1.88-.31.37-.54.8-.7,1.29-.16.49-.24,1-.24,1.55,0,.58.09,1.11.26,1.6.18.49.43.92.75,1.28.32.37.7.66,1.13.86.43.2.91.31,1.43.31.62,0,1.21-.16,1.77-.48.56-.32,1.08-.78,1.56-1.39v2.33c-1.01,1.08-2.19,1.62-3.54,1.62Zm3.37-4.57h-2.43v-1.72h4.37v6.2h-1.94v-4.49Z"/><path class="cls-1" d="m138.51,318.58v-12.07h2.35v12.07h-2.35Z"/><path class="cls-1" d="m147.07,310.83v7.75h-2.35v-12.07h1.89l6.22,7.96v-7.94h2.33v12.05h-1.94l-6.15-7.75Z"/><path class="cls-1" d="m167.44,316.53v2.06h-8.38v-12.07h8.23v2.06h-5.88v2.91h5.07v1.9h-5.07v3.15h6.03Z"/><path class="cls-1" d="m179.02,316.53v2.06h-8.38v-12.07h8.23v2.06h-5.88v2.91h5.07v1.9h-5.07v3.15h6.03Z"/><path class="cls-1" d="m182.21,318.58v-12.07h5.35c.54,0,1.05.11,1.52.34s.88.53,1.22.92c.35.39.61.82.8,1.29.19.48.28.96.28,1.46s-.09,1-.26,1.46-.43.87-.76,1.23c-.33.36-.71.63-1.16.82l2.75,4.54h-2.58l-2.48-4.05h-2.35v4.05h-2.35Zm2.35-6.1h2.94c.29,0,.56-.09.78-.26.23-.18.41-.41.54-.71.14-.29.2-.62.2-.99s-.08-.71-.24-1-.36-.53-.59-.7c-.24-.17-.5-.26-.78-.26h-2.86v3.91Z"/><path class="cls-1" d="m194.88,318.58v-12.07h2.35v12.07h-2.35Z"/><path class="cls-1" d="m203.44,310.83v7.75h-2.35v-12.07h1.89l6.22,7.96v-7.94h2.33v12.05h-1.94l-6.15-7.75Z"/><path class="cls-1" d="m220.44,318.67c-.79,0-1.54-.16-2.23-.47-.69-.31-1.3-.75-1.83-1.32-.53-.57-.94-1.22-1.23-1.96-.3-.74-.44-1.56-.44-2.44,0-.83.15-1.61.45-2.34s.71-1.38,1.24-1.94,1.15-1,1.86-1.31c.71-.31,1.48-.47,2.31-.47,1.14,0,2.12.24,2.93.71.81.48,1.42,1.12,1.83,1.92l-1.75,1.29c-.29-.6-.72-1.06-1.27-1.38s-1.16-.48-1.8-.48c-.51,0-.98.11-1.4.32-.43.22-.79.51-1.1.88-.31.37-.54.8-.7,1.29-.16.49-.24,1-.24,1.55,0,.58.09,1.11.26,1.6.17.49.42.92.75,1.28.32.37.7.66,1.13.86.43.2.91.31,1.43.31.62,0,1.21-.16,1.77-.48.55-.32,1.08-.78,1.56-1.39v2.33c-1.01,1.08-2.19,1.62-3.54,1.62Zm3.37-4.57h-2.43v-1.72h4.37v6.2h-1.94v-4.49Z"/><path class="cls-1" d="m237.31,306.51h2.38l4.44,12.07h-2.41l-1-3.01h-4.43l-1.01,3.01h-2.41l4.45-12.07Zm2.85,7.41l-1.66-4.98-1.67,4.98h3.33Z"/><path class="cls-1" d="m249.15,310.83v7.75h-2.35v-12.07h1.89l6.22,7.96v-7.94h2.33v12.05h-1.94l-6.15-7.75Z"/><path class="cls-1" d="m261.14,318.58v-12.07h4.39c1.31,0,2.41.27,3.3.81s1.55,1.26,1.99,2.18c.44.91.66,1.92.66,3.03,0,1.22-.24,2.29-.73,3.2-.49.91-1.18,1.61-2.07,2.11-.89.5-1.94.75-3.15.75h-4.39Zm7.97-6.05c0-.78-.14-1.47-.42-2.07-.28-.59-.69-1.06-1.22-1.39s-1.18-.5-1.94-.5h-2.04v7.96h2.04c.78,0,1.44-.18,1.96-.53.53-.35.93-.83,1.21-1.43.28-.6.42-1.28.42-2.04Z"/><path class="cls-1" d="m287.3,309.67c-.08-.08-.22-.18-.43-.31-.21-.13-.46-.26-.77-.4-.3-.14-.63-.25-.98-.34-.35-.09-.71-.14-1.07-.14-.63,0-1.11.12-1.44.35s-.48.57-.48,1.01c0,.33.1.59.31.78.2.19.51.36.92.49.41.13.92.28,1.53.44.79.19,1.48.43,2.07.7.58.28,1.03.64,1.34,1.08.31.45.47,1.04.47,1.78,0,.63-.12,1.17-.36,1.62s-.56.82-.98,1.11c-.41.29-.89.5-1.43.63s-1.11.19-1.71.19-1.2-.06-1.8-.19c-.6-.12-1.18-.3-1.73-.54s-1.06-.51-1.54-.84l1.04-2.02c.1.1.28.24.54.4.26.16.58.33.95.49.37.16.78.3,1.22.42s.89.17,1.34.17c.65,0,1.13-.1,1.44-.31.32-.21.48-.51.48-.92,0-.36-.13-.65-.38-.85-.26-.21-.61-.39-1.08-.54s-1.01-.31-1.65-.48c-.77-.21-1.41-.46-1.91-.73-.5-.27-.88-.61-1.14-1.01s-.38-.91-.38-1.52c0-.82.2-1.51.59-2.07.4-.56.93-.98,1.6-1.27s1.41-.43,2.23-.43c.57,0,1.1.06,1.61.19s.98.29,1.42.49c.44.2.84.43,1.19.66l-1.04,1.9Z"/><path class="cls-1" d="m297.04,318.67c-.88,0-1.68-.17-2.4-.51-.71-.34-1.33-.8-1.85-1.39-.52-.58-.92-1.24-1.21-1.97-.28-.73-.43-1.48-.43-2.25s.15-1.57.45-2.3c.3-.73.71-1.38,1.24-1.96.53-.57,1.15-1.03,1.88-1.36.72-.33,1.51-.5,2.36-.5s1.67.18,2.39.53c.72.35,1.33.82,1.84,1.41.51.59.9,1.25,1.18,1.97.28.73.42,1.47.42,2.24s-.14,1.56-.43,2.29c-.29.73-.7,1.38-1.22,1.96-.53.57-1.15,1.02-1.87,1.35-.72.33-1.5.49-2.35.49Zm-3.5-6.12c0,.52.08,1.03.24,1.51.16.49.39.92.69,1.3s.67.68,1.11.9c.44.22.93.33,1.49.33s1.08-.12,1.51-.35.8-.54,1.1-.93.52-.82.67-1.31c.15-.49.22-.97.22-1.46,0-.52-.08-1.02-.24-1.5-.16-.48-.39-.91-.7-1.29s-.67-.68-1.1-.9c-.43-.22-.92-.33-1.48-.33s-1.05.12-1.49.35-.81.54-1.1.92c-.3.38-.53.81-.68,1.29-.15.48-.23.97-.23,1.47Z"/><path class="cls-1" d="m306.1,318.58v-12.07h2.35v10.01h6.15v2.06h-8.5Z"/><path class="cls-1" d="m322.16,318.67c-.95,0-1.77-.16-2.44-.48s-1.22-.77-1.63-1.33c-.41-.57-.72-1.21-.91-1.93-.19-.72-.29-1.47-.29-2.25v-6.15h2.33v6.15c0,.5.05.98.16,1.45.11.47.27.89.49,1.27.22.37.52.67.89.88.37.22.84.32,1.39.32s1.05-.11,1.42-.33c.37-.22.67-.52.89-.89.23-.37.39-.8.49-1.27.1-.47.15-.95.15-1.44v-6.15h2.33v6.15c0,.82-.1,1.59-.31,2.32-.2.73-.52,1.37-.93,1.92-.42.55-.96.98-1.63,1.29-.67.31-1.47.47-2.41.47Z"/><path class="cls-1" d="m340.18,308.57h-3.84v10.01h-2.33v-10.01h-3.88v-2.06h10.05v2.06Z"/><path class="cls-1" d="m343.06,318.58v-12.07h2.35v12.07h-2.35Z"/><path class="cls-1" d="m354.43,318.67c-.88,0-1.68-.17-2.4-.51-.71-.34-1.33-.8-1.85-1.39-.52-.58-.92-1.24-1.21-1.97-.28-.73-.42-1.48-.42-2.25s.15-1.57.45-2.3c.3-.73.71-1.38,1.24-1.96.53-.57,1.15-1.03,1.88-1.36.72-.33,1.51-.5,2.36-.5s1.67.18,2.39.53c.72.35,1.33.82,1.84,1.41s.9,1.25,1.18,1.97c.28.73.42,1.47.42,2.24s-.14,1.56-.43,2.29c-.29.73-.7,1.38-1.22,1.96-.53.57-1.15,1.02-1.87,1.35-.72.33-1.5.49-2.35.49Zm-3.5-6.12c0,.52.08,1.03.24,1.51.16.49.39.92.69,1.3.3.38.67.68,1.1.9.44.22.93.33,1.49.33s1.08-.12,1.51-.35c.43-.23.8-.54,1.1-.93s.52-.82.67-1.31c.15-.49.22-.97.22-1.46,0-.52-.08-1.02-.24-1.5-.16-.48-.39-.91-.7-1.29-.31-.38-.67-.68-1.1-.9-.43-.22-.92-.33-1.48-.33s-1.05.12-1.49.35c-.44.23-.81.54-1.11.92s-.53.81-.68,1.29c-.15.48-.23.97-.23,1.47Z"/><path class="cls-1" d="m365.83,310.83v7.75h-2.35v-12.07h1.89l6.22,7.96v-7.94h2.33v12.05h-1.94l-6.15-7.75Z"/><path class="cls-1" d="m385.01,309.67c-.08-.08-.22-.18-.43-.31-.21-.13-.46-.26-.77-.4-.3-.14-.63-.25-.98-.34-.35-.09-.71-.14-1.07-.14-.63,0-1.11.12-1.44.35s-.48.57-.48,1.01c0,.33.1.59.31.78.2.19.51.36.92.49.41.13.92.28,1.53.44.79.19,1.48.43,2.07.7.58.28,1.03.64,1.34,1.08s.47,1.04.47,1.78c0,.63-.12,1.17-.36,1.62-.24.45-.56.82-.98,1.11-.41.29-.89.5-1.43.63s-1.11.19-1.71.19-1.2-.06-1.8-.19c-.6-.12-1.18-.3-1.73-.54-.55-.23-1.06-.51-1.54-.84l1.04-2.02c.1.1.28.24.54.4.26.16.58.33.95.49.37.16.78.3,1.22.42s.89.17,1.34.17c.65,0,1.13-.1,1.44-.31.32-.21.48-.51.48-.92,0-.36-.13-.65-.38-.85-.26-.21-.61-.39-1.08-.54s-1.01-.31-1.65-.48c-.77-.21-1.41-.46-1.91-.73-.5-.27-.88-.61-1.14-1.01-.26-.4-.38-.91-.38-1.52,0-.82.2-1.51.59-2.07.4-.56.93-.98,1.6-1.27s1.41-.43,2.23-.43c.57,0,1.1.06,1.61.19s.98.29,1.42.49c.44.2.84.43,1.19.66l-1.04,1.9Z"/></g></svg>