<?xml version="1.0" encoding="UTF-8"?><svg xmlns="http://www.w3.org/2000/svg" viewBox="0 0 264.79 218.33"><defs><style>.d{fill:#111d4a;}.e{fill:#03538e;}.f{fill:#00a1bc;}</style></defs><g id="a"/><g id="b"><g id="c"><g><g><g><path class="d" d="M18.54,184.85c0-2.1,.4-4.17,1.19-6.19,.79-2.02,1.95-3.86,3.47-5.51,1.52-1.65,3.37-2.97,5.56-3.96,2.18-.99,4.65-1.48,7.4-1.48,3.3,0,6.18,.69,8.64,2.06,2.46,1.38,4.29,3.2,5.48,5.46l-7.23,5.14c-.42-1.13-1.03-2.01-1.82-2.62-.79-.61-1.65-1.04-2.57-1.29s-1.82-.36-2.69-.36c-1.36,0-2.53,.27-3.52,.8-.99,.53-1.8,1.24-2.43,2.11-.63,.87-1.1,1.84-1.41,2.91-.31,1.07-.46,2.14-.46,3.2,0,1.2,.18,2.35,.53,3.45,.36,1.1,.87,2.08,1.55,2.94,.68,.86,1.51,1.53,2.5,2.01,.99,.49,2.09,.73,3.32,.73,.87,0,1.76-.14,2.67-.41,.91-.27,1.73-.72,2.48-1.33,.74-.61,1.31-1.44,1.7-2.47l7.72,4.61c-.68,1.68-1.81,3.12-3.4,4.32-1.59,1.2-3.38,2.11-5.39,2.74-2.01,.63-4,.95-5.97,.95-2.56,0-4.89-.51-7.01-1.53-2.12-1.02-3.95-2.38-5.48-4.08-1.54-1.7-2.73-3.61-3.57-5.73-.84-2.12-1.26-4.28-1.26-6.48Z"/><path class="d" d="M68.67,167.96h10.58l10.97,34.46h-9.61l-1.78-6.75h-9.73l-1.78,6.75h-9.66l11.02-34.46Zm8.49,21.4l-3.2-12.13-3.2,12.13h6.4Z"/><path class="d" d="M109.82,185.48v16.94h-9.46v-34.46h7.38l13.83,17.52v-17.52h9.46v34.46h-7.52l-13.68-16.94Z"/><path class="d" d="M150.88,167.96l6.75,23.54,6.65-23.54h9.95l-11.89,34.46h-9.41l-12.04-34.46h10Z"/><path class="d" d="M208.67,194.16v8.25h-24.56v-34.46h24.12v8.25h-14.66v4.85h12.52v7.67h-12.52v5.44h15.09Z"/><path class="d" d="M220.37,202.41v-34.46h9.46v26.21h15.63v8.25h-25.09Z"/></g><g><polygon class="f" points="194.26 98.91 186.8 131.59 140.55 153.87 133.84 157.1 126.64 153.63 80.88 131.59 73.42 98.91 87.7 98.91 92.96 121.96 126.64 138.18 133.84 141.65 140.55 138.42 174.73 121.96 179.99 98.91 194.26 98.91"/><path class="e" d="M179.12,70.58h-38.57v67.85l-6.71,3.23-7.21-3.47V70.58h-38.07l11.09-13.91h26.98v-15.59c2.18,.76,4.52,1.17,6.96,1.17s4.78-.41,6.95-1.17v15.59h27.48l11.09,13.91Z"/><path class="f" d="M140.55,1.17c-2.18-.76-4.52-1.17-6.95-1.17s-4.78,.41-6.96,1.17c-8.25,2.88-14.17,10.72-14.17,19.95,0,2.53,.45,4.95,1.26,7.21,2.16,5.95,6.92,10.65,12.9,12.74,2.18,.76,4.52,1.17,6.96,1.17s4.78-.41,6.95-1.17c5.99-2.09,10.74-6.79,12.9-12.74,.82-2.25,1.26-4.68,1.26-7.21,0-9.23-5.92-17.07-14.17-19.95Zm-6.71,12.99c3.2,0,5.9,2.16,6.71,5.1,.16,.59,.25,1.21,.25,1.86s-.09,1.27-.25,1.86c-.82,2.94-3.51,5.1-6.71,5.1-3.84,0-6.96-3.12-6.96-6.95s3.12-6.96,6.96-6.96Z"/></g></g><g><path class="e" d="M6.76,218.28v-5.43l-2.13,4.04h-.9l-2.12-4.04v5.43H0v-8.27H1.74l2.43,4.69,2.46-4.69h1.72v8.27h-1.6Z"/><path class="e" d="M13.25,210.01h1.63l3.04,8.27h-1.65l-.69-2.06h-3.04l-.69,2.06h-1.65l3.05-8.27Zm1.95,5.08l-1.14-3.41-1.14,3.41h2.28Z"/><path class="e" d="M19.76,218.28v-8.27h3.67c.37,0,.72,.08,1.04,.23s.6,.36,.84,.63c.24,.26,.42,.56,.55,.89,.13,.33,.19,.66,.19,1s-.06,.68-.18,1-.29,.6-.52,.84c-.23,.24-.49,.43-.79,.56l1.89,3.11h-1.77l-1.7-2.77h-1.61v2.77h-1.61Zm1.61-4.18h2.02c.2,0,.38-.06,.54-.18,.16-.12,.28-.28,.37-.48,.09-.2,.14-.43,.14-.68s-.05-.49-.16-.69-.24-.36-.41-.48c-.16-.12-.34-.17-.54-.17h-1.96v2.68Z"/><path class="e" d="M28.44,218.28v-8.27h1.61v8.27h-1.61Z"/><path class="e" d="M38.88,211.42h-2.63v6.86h-1.6v-6.86h-2.66v-1.41h6.88v1.41Z"/><path class="e" d="M40.85,218.28v-8.27h1.61v8.27h-1.61Z"/><path class="e" d="M51.86,218.28v-5.43l-2.13,4.04h-.9l-2.12-4.04v5.43h-1.61v-8.27h1.74l2.43,4.69,2.46-4.69h1.72v8.27h-1.6Z"/><path class="e" d="M61.86,216.87v1.41h-5.74v-8.27h5.64v1.41h-4.03v1.99h3.47v1.3h-3.47v2.15h4.13Z"/><path class="e" d="M73.51,216.87v1.41h-5.74v-8.27h5.64v1.41h-4.03v1.99h3.47v1.3h-3.47v2.15h4.13Z"/><path class="e" d="M77.31,212.96v5.31h-1.61v-8.27h1.29l4.26,5.45v-5.44h1.6v8.26h-1.33l-4.22-5.31Z"/><path class="e" d="M88.96,218.33c-.54,0-1.05-.11-1.53-.32-.47-.21-.89-.51-1.25-.9-.36-.39-.64-.84-.84-1.35-.2-.51-.3-1.07-.3-1.67,0-.57,.1-1.1,.31-1.6s.49-.94,.85-1.33c.36-.38,.79-.68,1.28-.9,.49-.21,1.02-.32,1.58-.32,.78,0,1.45,.16,2.01,.49,.55,.33,.97,.76,1.25,1.32l-1.2,.88c-.2-.41-.49-.73-.87-.94-.38-.22-.79-.33-1.23-.33-.35,0-.67,.07-.96,.22-.29,.15-.54,.35-.75,.61-.21,.26-.37,.55-.48,.88-.11,.33-.16,.69-.16,1.06,0,.4,.06,.76,.18,1.09,.12,.33,.29,.63,.51,.88,.22,.25,.48,.45,.77,.59,.3,.14,.62,.21,.98,.21,.43,0,.83-.11,1.21-.33,.38-.22,.74-.54,1.07-.96v1.6c-.69,.74-1.5,1.11-2.42,1.11Zm2.31-3.13h-1.67v-1.18h2.99v4.25h-1.33v-3.07Z"/><path class="e" d="M94.9,218.28v-8.27h1.61v8.27h-1.61Z"/><path class="e" d="M100.77,212.96v5.31h-1.61v-8.27h1.29l4.26,5.45v-5.44h1.6v8.26h-1.33l-4.22-5.31Z"/><path class="e" d="M114.72,216.87v1.41h-5.74v-8.27h5.64v1.41h-4.03v1.99h3.47v1.3h-3.47v2.15h4.13Z"/><path class="e" d="M122.65,216.87v1.41h-5.74v-8.27h5.64v1.41h-4.03v1.99h3.47v1.3h-3.47v2.15h4.13Z"/><path class="e" d="M124.84,218.28v-8.27h3.67c.37,0,.72,.08,1.04,.23s.6,.36,.84,.63c.24,.26,.42,.56,.55,.89,.13,.33,.19,.66,.19,1s-.06,.68-.18,1-.29,.6-.52,.84c-.23,.24-.49,.43-.79,.56l1.89,3.11h-1.77l-1.7-2.77h-1.61v2.77h-1.61Zm1.61-4.18h2.02c.2,0,.38-.06,.54-.18,.16-.12,.28-.28,.37-.48,.09-.2,.14-.43,.14-.68s-.05-.49-.16-.69-.24-.36-.41-.48c-.16-.12-.34-.17-.54-.17h-1.96v2.68Z"/><path class="e" d="M133.52,218.28v-8.27h1.61v8.27h-1.61Z"/><path class="e" d="M139.39,212.96v5.31h-1.61v-8.27h1.29l4.26,5.45v-5.44h1.6v8.26h-1.33l-4.22-5.31Z"/><path class="e" d="M151.04,218.33c-.54,0-1.05-.11-1.53-.32-.47-.21-.89-.51-1.25-.9-.36-.39-.64-.84-.84-1.35-.2-.51-.3-1.07-.3-1.67,0-.57,.1-1.1,.31-1.6s.49-.94,.85-1.33,.79-.68,1.28-.9c.49-.21,1.02-.32,1.58-.32,.78,0,1.45,.16,2.01,.49,.55,.33,.97,.76,1.25,1.32l-1.2,.88c-.2-.41-.49-.73-.87-.94s-.79-.33-1.23-.33c-.35,0-.67,.07-.96,.22-.29,.15-.54,.35-.75,.61-.21,.26-.37,.55-.48,.88-.11,.33-.16,.69-.16,1.06,0,.4,.06,.76,.18,1.09,.12,.33,.29,.63,.51,.88,.22,.25,.48,.45,.77,.59,.3,.14,.62,.21,.98,.21,.43,0,.83-.11,1.21-.33,.38-.22,.74-.54,1.07-.96v1.6c-.69,.74-1.5,1.11-2.42,1.11Zm2.31-3.13h-1.67v-1.18h2.99v4.25h-1.33v-3.07Z"/><path class="e" d="M162.59,210.01h1.63l3.04,8.27h-1.65l-.69-2.06h-3.04l-.69,2.06h-1.65l3.05-8.27Zm1.95,5.08l-1.14-3.41-1.14,3.41h2.28Z"/><path class="e" d="M170.71,212.96v5.31h-1.61v-8.27h1.29l4.26,5.45v-5.44h1.6v8.26h-1.33l-4.22-5.31Z"/><path class="e" d="M178.92,218.28v-8.27h3c.9,0,1.65,.18,2.26,.55s1.06,.87,1.36,1.49c.3,.63,.45,1.32,.45,2.08,0,.84-.17,1.57-.5,2.19-.33,.62-.81,1.1-1.42,1.44s-1.33,.51-2.16,.51h-3Zm5.46-4.15c0-.54-.1-1.01-.29-1.42-.19-.41-.47-.73-.84-.95s-.81-.34-1.33-.34h-1.4v5.45h1.4c.54,0,.98-.12,1.35-.36s.64-.57,.83-.98c.19-.41,.29-.88,.29-1.4Z"/><path class="e" d="M196.84,212.17c-.05-.05-.15-.13-.3-.22-.14-.09-.32-.18-.52-.27-.21-.09-.43-.17-.67-.23-.24-.06-.49-.09-.73-.09-.44,0-.76,.08-.98,.24s-.33,.39-.33,.69c0,.22,.07,.4,.21,.53,.14,.13,.35,.24,.63,.34,.28,.09,.63,.19,1.05,.3,.54,.13,1.02,.29,1.42,.48,.4,.19,.71,.44,.92,.74s.32,.71,.32,1.22c0,.43-.08,.8-.24,1.11s-.39,.56-.67,.76c-.28,.2-.61,.34-.98,.43s-.76,.13-1.17,.13-.82-.04-1.23-.13c-.41-.09-.81-.21-1.18-.37s-.73-.35-1.05-.58l.71-1.39c.07,.07,.19,.16,.37,.27,.18,.11,.4,.23,.65,.34,.26,.11,.54,.21,.84,.29s.61,.12,.92,.12c.44,0,.77-.07,.99-.21,.22-.14,.33-.35,.33-.63,0-.25-.09-.44-.26-.59-.17-.14-.42-.27-.74-.37s-.69-.21-1.13-.33c-.53-.15-.96-.31-1.31-.5-.35-.19-.61-.42-.78-.69s-.26-.62-.26-1.04c0-.56,.14-1.04,.41-1.42,.27-.38,.64-.67,1.09-.87s.97-.3,1.53-.3c.39,0,.75,.04,1.1,.13s.67,.2,.97,.34c.3,.14,.57,.29,.82,.45l-.71,1.3Z"/><path class="e" d="M203.52,218.33c-.61,0-1.15-.12-1.64-.35-.49-.23-.91-.55-1.27-.95-.36-.4-.63-.85-.83-1.35-.19-.5-.29-1.02-.29-1.54s.1-1.08,.31-1.58c.21-.5,.49-.95,.85-1.34,.36-.39,.79-.7,1.29-.93,.5-.23,1.04-.34,1.62-.34s1.14,.12,1.64,.36c.49,.24,.91,.56,1.26,.97,.35,.4,.62,.85,.81,1.35,.19,.5,.29,1.01,.29,1.54s-.1,1.07-.3,1.57c-.2,.5-.48,.95-.84,1.34-.36,.39-.79,.7-1.28,.93-.49,.23-1.03,.34-1.61,.34Zm-2.4-4.19c0,.36,.05,.7,.16,1.04,.11,.33,.27,.63,.47,.89s.46,.47,.76,.62c.3,.15,.64,.23,1.02,.23s.74-.08,1.04-.24,.55-.37,.75-.63,.36-.56,.46-.9c.1-.33,.15-.67,.15-1,0-.36-.05-.7-.16-1.03-.11-.33-.27-.63-.48-.89s-.46-.47-.76-.62c-.3-.15-.63-.23-1.01-.23s-.72,.08-1.02,.24-.55,.37-.76,.63c-.21,.26-.36,.56-.47,.89-.11,.33-.16,.67-.16,1.01Z"/><path class="e" d="M209.72,218.28v-8.27h1.61v6.86h4.22v1.41h-5.82Z"/><path class="e" d="M220.73,218.33c-.65,0-1.21-.11-1.67-.33s-.83-.53-1.12-.91c-.28-.39-.49-.83-.62-1.32-.13-.49-.2-1.01-.2-1.54v-4.22h1.6v4.22c0,.34,.04,.67,.11,1,.07,.32,.19,.61,.34,.87,.15,.26,.36,.46,.61,.61,.26,.15,.57,.22,.96,.22s.72-.08,.97-.23c.25-.15,.46-.36,.61-.61,.16-.26,.27-.54,.34-.87,.07-.32,.1-.65,.1-.98v-4.22h1.6v4.22c0,.56-.07,1.09-.21,1.59-.14,.5-.35,.94-.64,1.32-.29,.38-.66,.67-1.12,.88-.46,.21-1.01,.32-1.65,.32Z"/><path class="e" d="M233.08,211.42h-2.63v6.86h-1.6v-6.86h-2.66v-1.41h6.88v1.41Z"/><path class="e" d="M235.04,218.28v-8.27h1.61v8.27h-1.61Z"/><path class="e" d="M242.84,218.33c-.61,0-1.15-.12-1.64-.35-.49-.23-.91-.55-1.27-.95-.36-.4-.63-.85-.83-1.35-.19-.5-.29-1.02-.29-1.54s.1-1.08,.31-1.58c.21-.5,.49-.95,.85-1.34,.36-.39,.79-.7,1.29-.93,.5-.23,1.04-.34,1.62-.34s1.14,.12,1.64,.36c.49,.24,.91,.56,1.26,.97s.62,.85,.81,1.35c.19,.5,.29,1.01,.29,1.54s-.1,1.07-.3,1.57c-.2,.5-.48,.95-.84,1.34-.36,.39-.79,.7-1.28,.93-.49,.23-1.03,.34-1.61,.34Zm-2.4-4.19c0,.36,.05,.7,.16,1.04,.11,.33,.27,.63,.47,.89,.21,.26,.46,.47,.76,.62,.3,.15,.64,.23,1.02,.23s.74-.08,1.04-.24c.29-.16,.55-.37,.75-.63s.36-.56,.46-.9c.1-.33,.15-.67,.15-1,0-.36-.05-.7-.16-1.03-.11-.33-.27-.63-.48-.89-.21-.26-.46-.47-.76-.62-.3-.15-.63-.23-1.01-.23s-.72,.08-1.02,.24c-.3,.16-.55,.37-.76,.63s-.36,.56-.47,.89c-.1,.33-.16,.67-.16,1.01Z"/><path class="e" d="M250.65,212.96v5.31h-1.61v-8.27h1.29l4.26,5.45v-5.44h1.6v8.26h-1.33l-4.22-5.31Z"/><path class="e" d="M263.79,212.17c-.05-.05-.15-.13-.3-.22-.14-.09-.32-.18-.52-.27-.21-.09-.43-.17-.67-.23-.24-.06-.49-.09-.73-.09-.44,0-.76,.08-.98,.24s-.33,.39-.33,.69c0,.22,.07,.4,.21,.53,.14,.13,.35,.24,.63,.34,.28,.09,.63,.19,1.05,.3,.54,.13,1.02,.29,1.42,.48,.4,.19,.71,.44,.92,.74s.32,.71,.32,1.22c0,.43-.08,.8-.24,1.11s-.39,.56-.67,.76c-.28,.2-.61,.34-.98,.43s-.76,.13-1.17,.13-.82-.04-1.23-.13c-.41-.09-.81-.21-1.18-.37s-.73-.35-1.05-.58l.71-1.39c.07,.07,.19,.16,.37,.27,.18,.11,.4,.23,.65,.34,.26,.11,.54,.21,.84,.29s.61,.12,.92,.12c.44,0,.77-.07,.99-.21,.22-.14,.33-.35,.33-.63,0-.25-.09-.44-.26-.59-.17-.14-.42-.27-.74-.37s-.69-.21-1.13-.33c-.53-.15-.96-.31-1.31-.5-.35-.19-.61-.42-.78-.69s-.26-.62-.26-1.04c0-.56,.14-1.04,.41-1.42,.27-.38,.64-.67,1.09-.87s.97-.3,1.53-.3c.39,0,.75,.04,1.1,.13s.67,.2,.97,.34c.3,.14,.57,.29,.82,.45l-.71,1.3Z"/></g></g></g></g></svg>